<?xml version="1.0" encoding="utf-8"?>
<!-- Generator: Adobe Illustrator 23.0.5, SVG Export Plug-In . SVG Version: 6.00 Build 0)  -->
<svg version="1.1" id="Layer_1" xmlns="http://www.w3.org/2000/svg" xmlns:xlink="http://www.w3.org/1999/xlink" x="0px" y="0px"
	 viewBox="0 0 600 600" style="enable-background:new 0 0 600 600;" xml:space="preserve">
<style type="text/css">
	.st0{fill:#F9F9F9;}
	.st1{fill:#C1C1C1;}
	.st2{fill:#FE9595;}
	.st3{fill:#CED3E2;}
	.st4{fill:#3A5C91;}
	.st5{fill-rule:evenodd;clip-rule:evenodd;fill:#FFFFFF;}
	.st6{fill-rule:evenodd;clip-rule:evenodd;fill:#F1F1F1;}
	.st7{fill-rule:evenodd;clip-rule:evenodd;fill:#FFE003;}
	.st8{fill:#FFFFFF;}
</style>
<g>
	<g id="XMLID_3_">
		<path class="st0" d="M545.6,334.3c0-138.1-111.9-250-250-250s-250,111.9-250,250c0,34.4,7,67.2,19.5,97h461
			C538.6,401.5,545.6,368.7,545.6,334.3z"/>
		<path class="st1" d="M488,388h-6.9v-6.9c0-1.2-1-2.1-2.1-2.1s-2.1,1-2.1,2.1v6.9h-6c-1.2,0-2.1,1-2.1,2.1s1,2.1,2.1,2.1h6v6.9
			c0,1.2,1,2.1,2.1,2.1s2.1-1,2.1-2.1v-6.9h6.9c1.2,0,2.1-1,2.1-2.1S489.2,388,488,388z"/>
		<path class="st2" d="M358.4,112.5c-1.2,0-2.1-1-2.1-2.1V93.2c0-1.2,1-2.1,2.1-2.1s2.1,1,2.1,2.1v17.1
			C360.6,111.5,359.6,112.5,358.4,112.5z"/>
		<path class="st2" d="M367.4,103.5h-17.1c-1.2,0-2.1-1-2.1-2.1s1-2.1,2.1-2.1h17.1c1.2,0,2.1,1,2.1,2.1S368.6,103.5,367.4,103.5z"
			/>
		<path class="st2" d="M552.3,301.7c-0.8,0-1.5-0.6-1.7-1.4c-2-10.8-3.2-12-14-14c-0.8-0.2-1.4-0.9-1.4-1.7c0-0.8,0.6-1.5,1.4-1.7
			c10.8-2,12-3.2,14-14c0.2-0.8,0.9-1.4,1.7-1.4c0.8,0,1.5,0.6,1.7,1.4c2,10.8,3.2,12,14,14c0.8,0.2,1.4,0.9,1.4,1.7
			c0,0.8-0.6,1.5-1.4,1.7c-10.8,2-12,3.2-14,14C553.8,301.1,553.1,301.7,552.3,301.7z M544.2,284.6c4.4,1.5,6.6,3.7,8.1,8.1
			c1.5-4.4,3.7-6.6,8.1-8.1c-4.4-1.5-6.6-3.7-8.1-8.1C550.7,280.9,548.6,283.1,544.2,284.6z"/>
	</g>
	<path class="st3" d="M152,107.8c-0.8,0-1.4-0.5-1.7-1.3c-3.3-12-5.6-14.3-17.6-17.6c-0.7-0.2-1.3-0.9-1.3-1.7
		c0-0.8,0.5-1.4,1.3-1.7c12-3.3,14.3-5.6,17.6-17.6c0.2-0.7,0.9-1.3,1.7-1.3c0.8,0,1.4,0.5,1.7,1.3c3.3,12,5.6,14.3,17.6,17.6
		c0.7,0.2,1.3,0.9,1.3,1.7c0,0.8-0.5,1.4-1.3,1.7c-12,3.3-14.3,5.6-17.6,17.6C153.4,107.3,152.7,107.8,152,107.8z M139,87.4
		c7.2,2.6,10.4,5.8,13,13c2.6-7.2,5.8-10.4,13-13c-7.2-2.6-10.4-5.8-13-13C149.4,81.6,146.2,84.7,139,87.4z"/>
	<g>
		<path class="st3" d="M69,239H57c-1.7,0-3-1.3-3-3s1.3-3,3-3h12c1.7,0,3,1.3,3,3S70.7,239,69,239z"/>
		<path class="st3" d="M92,239H80c-1.7,0-3-1.3-3-3s1.3-3,3-3h12c1.7,0,3,1.3,3,3S93.7,239,92,239z"/>
		<path class="st3" d="M74.5,256.5c-1.7,0-3-1.3-3-3v-12c0-1.7,1.3-3,3-3s3,1.3,3,3v12C77.5,255.2,76.2,256.5,74.5,256.5z"/>
		<path class="st3" d="M74.5,233.5c-1.7,0-3-1.3-3-3v-12c0-1.7,1.3-3,3-3s3,1.3,3,3v12C77.5,232.2,76.2,233.5,74.5,233.5z"/>
	</g>
</g>
<path class="st4" d="M253.1,239.7c-1.7,0-3-1.3-3-3c-0.1-39.9,10.3-74.2,27.8-91.7c9.3-9.3,20.4-14,33.1-14
	c17.1,0,30.1,5.9,38.7,17.5c13.6,18.4,14.9,50.5,3.5,88c-0.5,1.6-2.2,2.5-3.7,2c-1.6-0.5-2.5-2.2-2-3.7c10.9-35.7,9.9-65.8-2.5-82.7
	c-7.4-10-18.8-15.1-33.9-15.1c-11.1,0-20.8,4.1-28.9,12.3c-16.4,16.4-26.1,49.1-26,87.5C256.1,238.4,254.8,239.7,253.1,239.7
	C253.1,239.7,253.1,239.7,253.1,239.7z"/>
<g>
	<polygon class="st5" points="161.5,431 348.5,431 370.5,194 181.6,194 	"/>
	<path class="st4" d="M348.5,434H161.5c-0.8,0-1.6-0.4-2.2-1c-0.6-0.6-0.9-1.4-0.8-2.3l20-237c0.1-1.6,1.4-2.7,3-2.7h188.9
		c0.8,0,1.6,0.4,2.2,1c0.6,0.6,0.8,1.5,0.8,2.3l-22,237C351.3,432.8,350,434,348.5,434z M164.8,428h180.9l21.5-231H184.3L164.8,428z
		"/>
</g>
<path class="st6" d="M345.7,428l21.5-231c-25.6,140-90.8,220.4-202.4,231H345.7z"/>
<g>
	<polygon class="st7" points="348.4,431 438.6,431 416.5,194 370.5,194 	"/>
	<path class="st4" d="M438.6,434h-90.1c-0.8,0-1.6-0.4-2.2-1c-0.6-0.6-0.8-1.5-0.8-2.3l22-237c0.1-1.5,1.4-2.7,3-2.7h46.1
		c1.5,0,2.8,1.2,3,2.7l22,237c0.1,0.8-0.2,1.7-0.8,2.3C440.2,433.6,439.4,434,438.6,434z M351.7,428h83.5l-21.5-231h-40.6L351.7,428
		z"/>
</g>
<path class="st4" d="M395.6,341.3c-1.7,0-3-1.3-3-3v-144c0-1.7,1.3-3,3-3c1.7,0,3,1.3,3,3v144C398.6,340,397.2,341.3,395.6,341.3z"
	/>
<path class="st4" d="M395.6,397.3c-1.7,0-3-1.3-3-3v-24c0-1.7,1.3-3,3-3c1.7,0,3,1.3,3,3v24C398.6,396,397.2,397.3,395.6,397.3z"/>
<path class="st4" d="M349,434c-0.9,0-1.8-0.4-2.4-1.1c-1-1.3-0.8-3.2,0.5-4.2l46.6-36.7c1.3-1,3.2-0.8,4.2,0.5
	c1,1.3,0.8,3.2-0.5,4.2l-46.6,36.7C350.3,433.8,349.7,434,349,434z"/>
<path class="st4" d="M438,434c-0.7,0-1.4-0.2-2-0.7l-42.4-36.7c-1.3-1.1-1.4-3-0.3-4.2c1.1-1.3,3-1.4,4.2-0.3l42.4,36.7
	c1.3,1.1,1.4,3,0.3,4.2C439.7,433.6,438.8,434,438,434z"/>
<path class="st4" d="M223.1,240.7c-1.5,0-2.8-1.1-3-2.6c-4.1-32.9,3.2-63.6,19.6-82.2c10.3-11.7,23.9-17.9,39.3-17.9
	c15.8,0,27.4,4.4,35.3,13.3c14.5,16.5,14.2,45,9,85.7c-0.2,1.6-1.7,2.8-3.4,2.6c-1.6-0.2-2.8-1.7-2.6-3.4c4.8-37.9,5.4-66.2-7.5-81
	C303.1,147.7,293,144,279,144c-13.8,0-25.5,5.3-34.8,15.9c-15,17-22,46.7-18.2,77.5c0.2,1.6-1,3.1-2.6,3.3
	C223.3,240.7,223.2,240.7,223.1,240.7z"/>
<g>
	<circle class="st8" cx="224.6" cy="236.3" r="8"/>
	<path class="st4" d="M224.6,247.3c-6.1,0-11-4.9-11-11s4.9-11,11-11c6.1,0,11,4.9,11,11S230.6,247.3,224.6,247.3z M224.6,231.3
		c-2.8,0-5,2.2-5,5c0,2.8,2.2,5,5,5c2.8,0,5-2.2,5-5C229.6,233.6,227.3,231.3,224.6,231.3z"/>
</g>
<g>
	<circle class="st8" cx="318.6" cy="236.3" r="8"/>
	<path class="st4" d="M318.6,247.3c-6.1,0-11-4.9-11-11s4.9-11,11-11c6.1,0,11,4.9,11,11S324.6,247.3,318.6,247.3z M318.6,231.3
		c-2.8,0-5,2.2-5,5c0,2.8,2.2,5,5,5c2.8,0,5-2.2,5-5C323.6,233.6,321.3,231.3,318.6,231.3z"/>
</g>
<path class="st4" d="M395.6,358.3c-1.7,0-3-1.3-3-3v-4c0-1.7,1.3-3,3-3c1.7,0,3,1.3,3,3v4C398.6,357,397.2,358.3,395.6,358.3z"/>
<path class="st4" d="M462,434H125c-1.7,0-3-1.3-3-3s1.3-3,3-3h337c1.7,0,3,1.3,3,3S463.7,434,462,434z"/>
<path class="st4" d="M525,434h-39c-1.7,0-3-1.3-3-3s1.3-3,3-3h39c1.7,0,3,1.3,3,3S526.7,434,525,434z"/>
<path class="st4" d="M475,434h-2c-1.7,0-3-1.3-3-3s1.3-3,3-3h2c1.7,0,3,1.3,3,3S476.7,434,475,434z"/>
</svg>
