<?xml version="1.0" encoding="utf-8"?>
<!-- Generator: Adobe Illustrator 23.0.3, SVG Export Plug-In . SVG Version: 6.00 Build 0)  -->
<svg version="1.1" id="_x2014_ÎÓÈ_x5F_2" xmlns="http://www.w3.org/2000/svg" xmlns:xlink="http://www.w3.org/1999/xlink"
	 x="0px" y="0px" viewBox="0 0 493.6 297.9" style="enable-background:new 0 0 493.6 297.9;" xml:space="preserve">
<style type="text/css">
	.st0{fill:#F4F4F4;}
	.st1{opacity:0.37;fill:#C6C6C6;enable-background:new    ;}
	.st2{fill:#408EFF;}
</style>
<g>
	<path class="st0" d="M472.6,297.9H21c-11.6,0-21-9.4-21-21V21C0,9.4,9.4,0,21,0h451.6c11.6,0,21,9.4,21,21v256
		C493.6,288.5,484.2,297.9,472.6,297.9z"/>
	<path class="st1" d="M392.1,115.5l-8.7-9.6c-1.3-1.4-3.5-1.5-4.9-0.2c-3.6,3.3-8.6,3.9-11,1.3c-2.4-2.6-1.3-7.5,2.3-10.8
		c1.4-1.3,1.5-3.5,0.2-4.9l-8.8-9.7c-0.6-0.7-1.5-1.1-2.4-1.1s-1.8,0.3-2.5,0.9c-1.9,1.7-4.2,2.7-6.4,2.9c-1.9,0.1-3.6-0.4-4.6-1.6
		c-2.4-2.6-1.3-7.5,2.3-10.8c0.7-0.6,1.1-1.5,1.1-2.4c0-0.9-0.3-1.8-0.9-2.5l-8.8-9.7c-1.3-1.4-3.5-1.5-4.9-0.2
		c-1.9,1.7-4.2,2.7-6.4,2.9c-1.9,0.1-3.6-0.4-4.6-1.6c-2.4-2.6-1.3-7.5,2.3-10.8c1.4-1.3,1.5-3.5,0.2-4.9l-8.7-9.6l0,0l0,0
		c-1.3-1.4-3.5-1.5-4.9-0.2l-19.9,17.5l5,2.6c2.1,1.1,3.7,3,4.4,5.2c0.7,2.2,0.5,4.7-0.5,6.8c-0.8,1.6-0.8,3.1-0.6,3.8
		c0.1,0,0.2-0.1,0.4-0.2c0.9-0.5,1.8-1.4,2.3-2.5c0.9-1.7,2.2-3,3.8-3.8c0.4-0.2,0.9-0.4,1.4-0.6c2.3-0.7,4.7-0.5,6.8,0.5l11.8,6
		c0.5,0.3,1,0.6,1.5,1c3.3,2.6,4.3,7.3,2.4,11l-0.1,0.2l-91.5,178.7l152.7-138.7l0,0C393.3,119.1,393.4,116.9,392.1,115.5z"/>
	<path class="st1" d="M325.9,77.7c0.8-1.5,0.3-3.3-0.9-4.3c-0.2-0.1-0.4-0.3-0.6-0.4l0,0l-11.8-6c-0.8-0.4-1.8-0.5-2.6-0.2
		s-1.6,0.9-2,1.7c-2.3,4.5-6.9,6.8-10.1,5.2s-4-6.8-1.7-11.3c0.4-0.8,0.5-1.8,0.2-2.6c-0.3-0.9-0.9-1.6-1.7-2l-11.9-6.1
		c-0.8-0.4-1.8-0.5-2.6-0.2s-1.6,0.9-2,1.7c-2.3,4.5-6.9,6.8-10.1,5.2c-1.5-0.7-2.5-2.2-2.9-4.2c-0.4-2.2,0-4.8,1.1-7.1
		c0.4-0.8,0.5-1.8,0.2-2.6c-0.3-0.9-0.9-1.6-1.7-2l-11.9-6.1c-1.7-0.9-3.8-0.2-4.6,1.5c-1.2,2.3-3,4.1-5,5.1l0,0
		c-1.8,0.8-3.6,0.9-5,0.1c-3.2-1.6-4-6.8-1.7-11.3c0.9-1.7,0.2-3.8-1.5-4.6l-11.8-6l0,0l0,0c-1.7-0.9-3.8-0.2-4.6,1.5L115.6,223.6
		c-0.8,1.5-0.3,3.3,0.9,4.3c0.2,0.1,0.4,0.3,0.6,0.4l11.8,6c1.7,0.9,3.8,0.2,4.6-1.5c1.2-2.3,3-4.1,5.1-5.1l0,0
		c1.8-0.8,3.6-0.9,5.1-0.1c3.2,1.6,4,6.8,1.7,11.3c-0.4,0.8-0.5,1.8-0.2,2.6c0.3,0.8,0.9,1.6,1.7,2l11.9,6.1
		c1.7,0.9,3.8,0.2,4.6-1.5c1.2-2.3,3-4.2,5.1-5.1c1.8-0.8,3.6-0.9,5.1-0.1c1.4,0.7,2.5,2.2,2.9,4.2c0.4,2.2,0,4.8-1.1,7.1
		c-0.4,0.8-0.5,1.8-0.2,2.6c0.3,0.8,0.9,1.6,1.7,2l11.9,6.1c1.7,0.9,3.8,0.2,4.6-1.5c1.2-2.3,3-4.1,5.1-5.1l0,0
		c1.8-0.8,3.6-0.9,5.1-0.1c1.4,0.7,2.5,2.2,2.9,4.2c0.4,2.2,0,4.8-1.1,7.1c-0.4,0.8-0.5,1.8-0.2,2.6c0.3,0.8,0.9,1.6,1.7,2l11.8,6
		l0,0l0,0l0,0c1,0.5,2.1,0.5,3,0.1c0.7-0.3,1.3-0.9,1.6-1.6l0,0L325.9,77.7L325.9,77.7z M222.4,68.3c1.1-2.2,3.9-3.1,6.1-2l1.2,0.6
		c2.2,1.1,3.1,3.9,2,6.1s-3.9,3.1-6.1,2l-1.2-0.6C222.1,73.3,221.3,70.5,222.4,68.3z M208.7,61.3c1.1-2.2,3.9-3.1,6.1-2l1.2,0.6
		c2.2,1.1,3.1,3.9,2,6.1c-1.1,2.2-3.9,3.1-6.1,2l-1.2-0.6C208.4,66.2,207.5,63.5,208.7,61.3z M190.2,124l6-0.3l3.8-4.7l2.1,5.6
		l5.6,2.1l-4.7,3.8l-0.3,6l-5-3.3l-5.8,1.6l1.6-5.8L190.2,124z M177.8,148.2l6-0.3l3.8-4.7l2.1,5.6l5.6,2.1l-4.7,3.8l-0.3,6l-5-3.3
		l-5.8,1.6l1.6-5.8L177.8,148.2z M165.5,172.3l6-0.3l3.8-4.7l2.1,5.6l5.6,2.1l-4.7,3.8l-0.3,6l-5-3.3l-5.8,1.6l1.6-5.8L165.5,172.3z
		 M245.3,80.1c-1.1,2.2-3.9,3.1-6.1,2l-1.2-0.6c-2.2-1.1-3.1-3.9-2-6.1s3.9-3.1,6.1-2l1.2,0.6C245.6,75.1,246.5,77.9,245.3,80.1z
		 M259.1,87.1c-1.1,2.2-3.9,3.1-6.1,2l-1.2-0.6c-2.2-1.1-3.1-3.9-2-6.1l0,0c1.1-2.2,3.9-3.1,6.1-2l1.2,0.6
		C259.3,82.1,260.2,84.9,259.1,87.1z M272.8,94.1c-1.1,2.2-3.9,3.1-6.1,2l-1.2-0.6c-2.2-1.1-3.1-3.9-2-6.1c1.1-2.2,3.9-3.1,6.1-2
		l1.2,0.6C273.1,89.2,274,91.9,272.8,94.1z M286.5,101.2c-1.1,2.2-3.9,3.1-6.1,2l-1.2-0.6c-2.2-1.1-3.1-3.9-2-6.1
		c1.1-2.2,3.9-3.1,6.1-2l1.2,0.6C286.8,96.2,287.7,98.9,286.5,101.2z M300.3,108.2c-1.1,2.2-3.9,3.1-6.1,2l-1.2-0.6
		c-2.2-1.1-3.1-3.9-2-6.1c1.1-2.2,3.9-3.1,6.1-2l1.2,0.6C300.5,103.2,301.4,106,300.3,108.2z"/>
	<g>
		<path class="st2" d="M161,166.8c-2.1,1.1-6.9,2.2-12.9,2.2c-15.8,0-25.5-9.9-25.5-25.1c0-16.4,11.4-26.4,26.6-26.4
			c6,0,10.3,1.3,12.1,2.2l-2,7.2c-2.4-1-5.6-1.9-9.8-1.9c-10.1,0-17.5,6.4-17.5,18.4c0,10.9,6.4,18,17.4,18c3.7,0,7.6-0.7,9.9-1.9
			L161,166.8z"/>
		<path class="st2" d="M201.5,149.9c0,13.2-9.3,19.2-18.5,19.2c-10.2,0-18.1-7-18.1-18.6c0-11.8,7.8-19.1,18.6-19.1
			C194.3,131.4,201.5,139,201.5,149.9z M174.3,150.3c0,7,3.4,12.2,8.9,12.2c5.2,0,8.8-5.1,8.8-12.4c0-5.6-2.5-12.1-8.7-12.1
			C176.9,138.1,174.3,144.3,174.3,150.3z"/>
		<path class="st2" d="M241.2,157.5c0,4.3,0.1,7.8,0.3,10.8h-8l-0.4-5.5H233c-1.5,2.6-5.1,6.3-11.5,6.3c-6.6,0-12.6-3.9-12.6-15.7
			v-21.2h9.1v19.6c0,6,1.9,9.8,6.7,9.8c3.6,0,6-2.6,7-4.9c0.3-0.8,0.5-1.8,0.5-2.8v-21.8h9.1L241.2,157.5L241.2,157.5z"/>
		<path class="st2" d="M251.1,144.2c0-4.7-0.1-8.6-0.3-12h8l0.4,5.6h0.1c2.7-4.1,6.9-6.4,12.4-6.4c8.3,0,15.2,7.1,15.2,18.4
			c0,13-8.2,19.3-16.4,19.3c-4.5,0-8.3-1.9-10.1-4.8h-0.1v18.6h-9.2V144.2L251.1,144.2z M260.2,153.2c0,0.9,0.1,1.7,0.3,2.5
			c0.9,3.7,4.1,6.4,8,6.4c5.8,0,9.2-4.8,9.2-11.9c0-6.4-3.1-11.5-9-11.5c-3.8,0-7.2,2.7-8.1,6.7c-0.2,0.7-0.4,1.6-0.4,2.3V153.2
			L260.2,153.2z"/>
		<path class="st2" d="M328.6,149.9c0,13.2-9.3,19.2-18.5,19.2c-10.2,0-18.1-7-18.1-18.6c0-11.8,7.8-19.1,18.6-19.1
			C321.5,131.4,328.6,139,328.6,149.9z M301.5,150.3c0,7,3.4,12.2,9,12.2c5.2,0,8.8-5.1,8.8-12.4c0-5.6-2.5-12.1-8.7-12.1
			C304.1,138.1,301.5,144.3,301.5,150.3z"/>
		<path class="st2" d="M336.1,143c0-4.1-0.1-7.6-0.3-10.7h8l0.4,5.4h0.2c1.5-2.8,5.5-6.2,11.5-6.2c6.3,0,12.8,4.1,12.8,15.5v21.3
			h-9.1v-20.4c0-5.2-1.9-9.1-6.9-9.1c-3.6,0-6.1,2.6-7.1,5.3c-0.3,0.8-0.4,1.9-0.4,3v21.2h-9.1V143z"/>
	</g>
</g>
</svg>
