<svg width="24" height="22" viewBox="0 0 24 22" fill="none" xmlns="http://www.w3.org/2000/svg">
<g clip-path="url(#clip0)">
<path d="M20.4091 13.1778V22.0004H3.60889V13.1778L5.01048 11.7181V20.5815H8.498V10.9061H15.8088V20.581H19.008V11.7181L20.4091 13.1778ZM14.4077 12.3247H9.89873V20.5118H14.4077V12.3247Z" fill="#3D4152"/>
<path fill-rule="evenodd" clip-rule="evenodd" d="M12 2.93444L2.07015 13.2838C1.60794 13.7653 0.840291 13.7765 0.363982 13.3089C-0.111473 12.8408 -0.12258 12.0634 0.339205 11.5819L11.0978 0.369921C11.5716 -0.124121 12.4285 -0.124121 12.9027 0.369921L23.66 11.5815C24.1222 12.063 24.1107 12.8408 23.6348 13.3085C23.1593 13.7765 22.3925 13.7649 21.9299 13.2834L12 2.93444Z" fill="#3D4152"/>
</g>
<defs>
<clipPath id="clip0">
<rect width="24" height="22" fill="white"/>
</clipPath>
</defs>
</svg>
