<svg width="48" height="48" viewBox="0 0 48 48" fill="none" xmlns="http://www.w3.org/2000/svg">
<circle cx="24" cy="24" r="23" fill="white"/>
<path d="M24 0C10.7797 0 0 10.7797 0 24C0 37.2203 10.7797 48 24 48C37.2203 48 48 37.2203 48 24C48 10.7797 37.322 0 24 0ZM24 46.983C11.3898 46.983 1.11864 36.7119 1.11864 24C1.11864 11.2881 11.3898 1.01695 24 1.01695C36.6102 1.01695 46.9831 11.2881 46.9831 24C46.9831 36.7119 36.7119 46.983 24 46.983Z" fill="#606061"/>
<path d="M32.339 23.4916H35.7966C36.1017 23.4916 36.3051 23.2882 36.3051 22.9831C36.3051 22.678 36.1017 22.4746 35.7966 22.4746H32.8475V19.3221C32.8475 19.017 32.6441 18.8136 32.339 18.8136C32.0339 18.8136 31.8305 19.017 31.8305 19.3221V22.9831C31.8305 23.2882 32.0339 23.4916 32.339 23.4916Z" fill="#606061"/>
<path d="M16.3729 24.2034C16.678 24.2034 16.8814 24 16.8814 23.6949C16.8814 23.3899 16.678 23.1865 16.3729 23.1865H8.13561C7.83053 23.1865 7.62714 23.3899 7.62714 23.6949C7.62714 24 7.83053 24.2034 8.13561 24.2034H16.3729Z" fill="#606061"/>
<path d="M19.6271 20.8475C19.6271 20.5424 19.4237 20.339 19.1186 20.339H10.8813C10.5763 20.339 10.3729 20.5424 10.3729 20.8475C10.3729 21.1525 10.5763 21.3559 10.8813 21.3559H19.1186C19.322 21.3559 19.6271 21.0509 19.6271 20.8475Z" fill="#606061"/>
<path d="M12.7119 19.4237C13.017 19.4237 13.2204 19.2203 13.2204 18.9152V17.0847C13.2204 16.8814 13.4238 16.678 13.6271 16.678H27.4577C27.661 16.678 27.8644 16.8814 27.8644 17.0847V18.8136V27.3559C27.8644 27.5593 27.661 27.7627 27.4577 27.7627H21.661C21.4577 26.339 20.1356 25.2203 18.6102 25.2203C17.0848 25.2203 15.8644 26.339 15.5594 27.7627H13.7288C13.5255 27.7627 13.3221 27.5593 13.3221 27.3559V25.6271C13.3221 25.322 13.1187 25.1186 12.8136 25.1186C12.5085 25.1186 12.3051 25.322 12.3051 25.6271V27.3559C12.3051 28.1695 12.9153 28.7797 13.7288 28.7797H15.661C15.8644 30.2034 17.1865 31.322 18.7119 31.322C20.2373 31.322 21.4577 30.2034 21.7627 28.7797H27.5594C27.9661 28.7797 28.2712 28.678 28.4746 28.3729C28.7797 28.5763 29.0848 28.7797 29.3899 28.7797H29.8983C30.1017 30.2034 31.4238 31.322 32.9492 31.322C34.4746 31.322 35.6949 30.2034 36 28.7797H36.5085C37.3221 28.7797 37.9322 28.1695 37.9322 27.3559V23.0847C37.9322 22.8814 37.8305 22.5763 37.7288 22.3729L35.3899 18.1017C35.0848 17.6949 34.678 17.3898 34.0678 17.3898H29.3899C29.1865 17.3898 29.0848 17.3898 28.9831 17.4915V17.0847C28.9831 16.2712 28.3729 15.661 27.5594 15.661H13.7288C12.9153 15.661 12.3051 16.2712 12.3051 17.0847V18.9152C12.3051 19.1186 12.5085 19.4237 12.7119 19.4237ZM18.7119 30.4068C17.5932 30.4068 16.678 29.4915 16.678 28.3729C16.678 27.2542 17.5932 26.339 18.7119 26.339C19.8305 26.339 20.7458 27.2542 20.7458 28.3729C20.7458 29.4915 19.8305 30.4068 18.7119 30.4068ZM32.9492 30.4068C31.8305 30.4068 30.9153 29.4915 30.9153 28.3729C30.9153 27.2542 31.8305 26.339 32.9492 26.339C34.0678 26.339 34.9831 27.2542 34.9831 28.3729C34.9831 29.4915 34.0678 30.4068 32.9492 30.4068ZM29.4916 18.4068H34.0678C34.2712 18.4068 34.3729 18.5085 34.4746 18.6102L36.8136 22.8813C36.8136 22.983 36.9153 22.983 36.9153 23.0847V27.3559C36.9153 27.5593 36.7119 27.7627 36.5085 27.7627H36C35.7966 26.339 34.4746 25.2203 32.9492 25.2203C31.4238 25.2203 30.2034 26.339 29.8983 27.7627H29.3899C29.1865 27.7627 28.9831 27.5593 28.9831 27.3559V18.8136C28.9831 18.6102 29.1865 18.4068 29.4916 18.4068Z" fill="#606061"/>
<path d="M5.69493 18.4068C6.20341 18.6102 6.81358 18.3051 6.91527 17.7966C7.11866 17.2881 6.81358 16.678 6.3051 16.5763C5.79663 16.3729 5.18646 16.678 5.08477 17.1864C4.88138 17.6949 5.18646 18.2034 5.69493 18.4068Z" fill="#606061"/>
<path d="M5.08476 24.2035C5.59323 24.2035 6.10171 23.7967 6.10171 23.1865C6.10171 22.678 5.69493 22.1696 5.08476 22.1696C4.57628 22.1696 4.06781 22.5763 4.06781 23.1865C4.06781 23.7967 4.57628 24.2035 5.08476 24.2035Z" fill="#606061"/>
<path d="M6.3051 29.7967C6.81358 29.5933 7.11866 29.0848 6.91527 28.5763C6.71188 28.0679 6.20341 27.7628 5.69493 27.9662C5.18646 28.1696 4.88138 28.678 5.08477 29.1865C5.28816 29.695 5.79663 30.0001 6.3051 29.7967Z" fill="#606061"/>
<path d="M43.7288 27.8644C43.2203 27.7627 42.7118 28.0678 42.6102 28.678C42.5085 29.1865 42.8135 29.6949 43.4237 29.7966C43.9322 29.8983 44.4407 29.5932 44.5424 28.9831C44.5424 28.4746 44.2373 27.9661 43.7288 27.8644Z" fill="#606061"/>
<path d="M42.7119 23.1865C42.8135 23.6949 43.322 24.1017 43.8305 24C44.339 23.8983 44.7458 23.3898 44.6441 22.8814C44.5424 22.3729 44.0339 21.9661 43.5254 22.0678C43.0169 22.1695 42.6102 22.678 42.7119 23.1865Z" fill="#606061"/>
<path d="M42.4068 18.4068C42.9153 18.2034 43.1186 17.5933 42.8136 17.0848C42.6102 16.5763 42 16.3729 41.4915 16.678C40.9831 16.8814 40.7797 17.4916 41.0848 18C41.2881 18.5085 41.8983 18.7119 42.4068 18.4068Z" fill="#606061"/>
<path d="M14.6441 36.9153C14.9492 36.9153 15.2543 37.017 15.5593 37.1187C16.1695 37.3221 16.4746 37.5255 16.678 37.9322C16.8814 38.2373 16.9831 38.7458 16.7797 39.2543C16.5763 39.7627 16.2712 40.1695 15.8644 40.2712C15.4576 40.4746 14.9492 40.4746 14.339 40.2712C14.0339 40.1695 13.7288 40.0678 13.6271 39.9661L14.6441 36.9153ZM14.339 39.7627C14.4407 39.7627 14.5424 39.8644 14.6441 39.8644C15.3559 40.0678 15.9661 39.8644 16.1695 39.0509C16.3729 38.339 16.1695 37.8305 15.4576 37.6271C15.2543 37.5255 15.1526 37.5255 15.0509 37.5255L14.339 39.7627Z" fill="#606162"/>
<path d="M19.2204 40.0678L18.1017 39.7628L17.8983 40.678L19.2204 40.9831L19.1187 41.4916L17.1865 41.0848L17.8983 37.9323L19.7288 38.339L19.6271 38.7458L18.4068 38.4407L18.2034 39.2543L19.4238 39.5594L19.2204 40.0678Z" fill="#606162"/>
<path d="M20.4407 38.4407L21.0508 38.5424L20.7457 41.2881L22.0678 41.4915L21.9661 41.7966L20.0339 41.5932L20.4407 38.4407Z" fill="#606162"/>
<path d="M23.4915 38.6441L23.3898 41.8983H22.7797L22.8814 38.6441H23.4915Z" fill="#606162"/>
<path d="M25.2203 41.8984L24 38.7458H24.6102L25.1186 40.1695C25.2203 40.5763 25.4237 40.9831 25.5254 41.2882C25.6271 40.8814 25.7288 40.4746 25.8305 40.0678L26.2373 38.5424H26.8475L25.9322 41.8984H25.2203Z" fill="#606162"/>
<path d="M29.3899 39.9661L28.1695 40.1695L28.3729 41.0848L29.6949 40.8814L29.7966 41.3898L27.8644 41.6949L27.356 38.5424L29.1865 38.2373L29.2882 38.7458L27.9661 38.8475L28.0678 39.661L29.2882 39.4576L29.3899 39.9661Z" fill="#606162"/>
<path d="M29.8983 38.0339C30.1017 37.9322 30.4068 37.8305 30.7119 37.7288C31.1187 37.6271 31.5254 37.6271 31.7288 37.7288C31.9322 37.8305 32.1356 38.0339 32.1356 38.2373C32.2373 38.6441 32.0339 38.9491 31.8305 39.1525C32.0339 39.1525 32.2373 39.3559 32.4407 39.661C32.6441 40.0678 32.8475 40.3729 32.9492 40.4746L32.339 40.678C32.2373 40.5763 32.1356 40.3729 31.9322 39.9661C31.7288 39.5593 31.5254 39.4576 31.2204 39.5593L30.9153 39.661L31.322 40.983L30.7119 41.1864L29.8983 38.0339ZM30.8136 39.2542L31.1187 39.1525C31.5254 39.0508 31.7288 38.7457 31.6271 38.4407C31.5254 38.1356 31.2203 38.0339 30.9153 38.1356C30.7119 38.2373 30.6102 38.2373 30.6102 38.2373L30.8136 39.2542Z" fill="#606162"/>
<path d="M34.3729 39.8644L33.8644 38.6441L32.2373 37.3221L32.8475 37.017L33.5593 37.6272C33.7627 37.8305 33.8644 37.9322 34.0678 38.1356C34.0678 37.9322 34.0678 37.7289 34.0678 37.4238V36.5085L34.678 36.2034L34.3729 38.339L34.8814 39.5594L34.3729 39.8644Z" fill="#606162"/>
</svg>
