<svg width="25" height="25" viewBox="0 0 25 25" fill="none" xmlns="http://www.w3.org/2000/svg">
<path d="M22.6422 12.0688L23.9762 9.7633C24.1366 9.48592 24.1802 9.15622 24.0974 8.84669C24.0147 8.53717 23.8125 8.27316 23.5352 8.11272L21.2273 6.77872V4.12038C21.2273 3.79991 21.1 3.49257 20.8734 3.26596C20.6467 3.03936 20.3394 2.91205 20.0189 2.91205H17.3618L16.029 0.605342C15.868 0.328533 15.6046 0.126244 15.2956 0.0422584C15.1423 0.000710973 14.9823 -0.0100022 14.8249 0.0107398C14.6674 0.0314818 14.5157 0.0832665 14.3784 0.163092L12.0705 1.49709L9.7626 0.161883C9.48507 0.00165563 9.15526 -0.0417654 8.84571 0.0411721C8.53617 0.124109 8.27225 0.326612 8.11201 0.604134L6.77801 2.91205H4.12089C3.80042 2.91205 3.49307 3.03936 3.26647 3.26596C3.03986 3.49257 2.91256 3.79991 2.91256 4.12038V6.77751L0.604638 8.11151C0.466927 8.19072 0.346225 8.29636 0.249467 8.42237C0.152708 8.54837 0.0818002 8.69225 0.040817 8.84574C-0.000166254 8.99923 -0.0104171 9.15931 0.0106535 9.31677C0.031724 9.47424 0.0837004 9.62599 0.163597 9.7633L1.4976 12.0688L0.163597 14.3743C0.00408327 14.6519 -0.0391953 14.9814 0.0431966 15.2908C0.125589 15.6002 0.326969 15.8645 0.60343 16.0261L2.91135 17.3601V20.0172C2.91135 20.3377 3.03865 20.645 3.26526 20.8716C3.49187 21.0982 3.79921 21.2256 4.11968 21.2256H6.77801L8.11201 23.5335C8.21899 23.7163 8.37173 23.8682 8.5552 23.9741C8.73868 24.0801 8.94657 24.1364 9.15843 24.1376C9.36868 24.1376 9.57772 24.0821 9.7638 23.9745L12.0693 22.6405L14.3772 23.9745C14.6547 24.1345 14.9843 24.1779 15.2937 24.0953C15.6031 24.0126 15.8671 23.8105 16.0278 23.5335L17.3606 21.2256H20.0177C20.3382 21.2256 20.6455 21.0982 20.8721 20.8716C21.0987 20.645 21.2261 20.3377 21.2261 20.0172V17.3601L23.534 16.0261C23.6714 15.9466 23.7919 15.8409 23.8885 15.7149C23.9851 15.5888 24.0559 15.445 24.0968 15.2916C24.1378 15.1382 24.1481 14.9782 24.1272 14.8208C24.1063 14.6634 24.0546 14.5117 23.975 14.3743L22.6422 12.0688ZM9.04847 6.01505C9.52934 6.01521 9.99044 6.20639 10.3304 6.54652C10.6703 6.88666 10.8611 7.34789 10.861 7.82876C10.8608 8.30963 10.6696 8.77073 10.3295 9.11064C9.98936 9.45055 9.52813 9.64142 9.04726 9.64126C8.5664 9.6411 8.10529 9.44992 7.76538 9.10979C7.42547 8.76965 7.2346 8.30842 7.23476 7.82755C7.23492 7.34669 7.4261 6.88558 7.76624 6.54567C8.10637 6.20576 8.56761 6.01489 9.04847 6.01505ZM9.41097 17.6151L7.47764 16.1663L14.7276 6.49959L16.661 7.94838L9.41097 17.6151ZM15.0901 18.0984C14.852 18.0983 14.6163 18.0513 14.3963 17.9601C14.1764 17.8689 13.9766 17.7353 13.8083 17.5669C13.6399 17.3985 13.5065 17.1986 13.4154 16.9786C13.3244 16.7586 13.2776 16.5228 13.2776 16.2847C13.2777 16.0466 13.3247 15.8108 13.4159 15.5909C13.5071 15.3709 13.6407 15.1711 13.8091 15.0028C13.9775 14.8345 14.1774 14.701 14.3975 14.61C14.6175 14.5189 14.8532 14.4721 15.0913 14.4722C15.5722 14.4723 16.0333 14.6635 16.3732 15.0036C16.7131 15.3438 16.904 15.805 16.9038 16.2859C16.9037 16.7668 16.7125 17.2279 16.3724 17.5678C16.0322 17.9077 15.571 18.0985 15.0901 18.0984Z" fill="#1276E2"/>
</svg>
