<svg width="48" height="48" viewBox="0 0 48 48" fill="none" xmlns="http://www.w3.org/2000/svg">
<ellipse cx="23.4691" cy="23.7603" rx="23.4691" ry="23.7603" fill="white"/>
<path d="M24.0976 0C10.7754 0 0 10.8099 0 24C0 37.1901 10.7754 48 23.9997 48C37.224 48 47.9993 37.2893 47.9993 24C48.0973 10.8099 37.3219 0 24.0976 0ZM24.0976 47.0083C11.3631 47.0083 1.07754 36.6942 1.07754 24C1.07754 11.3058 11.3631 0.991736 24.0976 0.991736C36.8321 0.991736 47.1177 11.3058 47.1177 24C47.1177 36.6942 36.7342 47.0083 24.0976 47.0083Z" fill="#606061"/>
<path d="M45.3545 15.0743L1.27344 19.7355V19.0413L45.2565 14.3801L45.3545 15.0743Z" fill="#606061"/>
<path d="M47.1177 29.5538L2.44897 33.7191L2.35101 33.0248L47.0198 28.8596L47.1177 29.5538Z" fill="#606061"/>
<path d="M23.0201 10.4132C18.612 10.8099 14.8896 13.3885 12.8325 16.9587L13.7141 16.8595C15.7712 13.686 19.1018 11.5042 23.118 11.1075C27.1343 10.7108 30.8567 12.2975 33.4036 14.9752L34.2852 14.8761C31.5424 11.8017 27.4282 10.0165 23.0201 10.4132Z" fill="#606061"/>
<path d="M34.3832 31.438C32.3261 34.2149 29.1914 36.1984 25.469 36.5951C21.7466 36.9918 18.3181 35.6033 15.7712 33.3223L14.8896 33.4215C17.6324 36.1984 21.4528 37.7852 25.567 37.3885C29.6812 36.9918 33.2077 34.7108 35.3628 31.438H34.3832Z" fill="#606061"/>
<path d="M11.3631 12.3967C11.559 12.5951 11.7549 12.6942 11.9508 12.8926C12.7345 13.3884 12.8324 14.0827 12.3427 14.7769C11.8529 15.4711 11.1672 15.5703 10.3835 14.9752C9.59984 14.3802 8.81618 13.7851 7.93456 13.1901C7.15089 12.5951 7.05294 12 7.54272 11.3058C8.03251 10.6116 8.71822 10.5124 9.50188 11.1075C9.6978 11.2066 9.79575 11.3058 9.99167 11.405C9.79575 11.6033 9.6978 11.9008 9.50188 12.0992C9.30597 12 9.20801 11.9008 9.01209 11.7025C8.71822 11.5041 8.42435 11.5041 8.32639 11.7025C8.13047 11.9008 8.13047 12.1984 8.5223 12.3967C9.30597 12.9917 10.1876 13.5868 10.9712 14.281C11.2651 14.4794 11.559 14.4794 11.657 14.281C11.8529 14.0827 11.8529 13.7851 11.461 13.5868C11.2651 13.3884 10.9712 13.2893 10.7753 13.0909C10.9712 12.8926 11.1672 12.5951 11.3631 12.3967Z" fill="#606061"/>
<path d="M12.3426 9.81823C12.6365 9.52071 12.9304 9.32237 13.3222 9.02484C13.5181 9.22319 13.714 9.42154 13.812 9.61989C13.5181 9.91741 13.2243 10.1158 12.8324 10.4133C13.2243 10.81 13.5181 11.3058 13.91 11.7025C14.3018 11.405 14.6936 11.0083 15.0855 10.7108C15.2814 10.9091 15.4773 11.1075 15.5752 11.3058C14.9875 11.8017 14.3018 12.2976 13.714 12.8926C12.4406 11.405 11.2651 10.0166 10.0896 8.52898C10.6773 8.03311 11.3631 7.53724 11.9508 6.9422C12.1467 7.14055 12.3426 7.33889 12.4406 7.53724C12.0488 7.83476 11.6569 8.23146 11.2651 8.52898C11.6569 9.02484 12.0488 9.42154 12.3426 9.81823Z" fill="#606061"/>
<path d="M18.2201 10.0166C18.1222 9.91741 18.0242 9.81824 17.8283 9.42154C17.7303 9.12402 17.5344 8.92567 17.4365 8.62815C17.2405 8.13229 16.9467 8.03311 16.5548 8.23146C16.4569 8.23146 16.3589 8.33063 16.261 8.33063C16.5548 9.02485 16.9467 9.71906 17.2405 10.4133C16.9467 10.5125 16.7508 10.7108 16.4569 10.81C15.6732 9.12402 14.7916 7.3389 14.0079 5.65295C14.3998 5.4546 14.7916 5.25625 15.1834 5.05791C15.9671 4.66121 16.5548 4.85956 16.9467 5.65295C17.0446 5.75212 17.0446 5.95047 17.1426 6.04964C17.4365 6.54551 17.4365 7.04138 17.1426 7.3389C17.6324 7.3389 17.9262 7.63642 18.2201 8.13229C18.3181 8.42981 18.514 8.62815 18.612 8.92567C18.7099 9.22319 18.8079 9.32237 19.0038 9.52072C18.7099 9.71906 18.514 9.91741 18.2201 10.0166ZM15.1834 6.04964C15.4773 6.54551 15.6732 7.14055 15.9671 7.63642C16.065 7.53724 16.163 7.53724 16.261 7.43807C16.5548 7.3389 16.6528 7.04138 16.4569 6.64468C16.3589 6.44634 16.261 6.34716 16.261 6.14881C16.065 5.75212 15.8691 5.65295 15.5753 5.85129C15.4773 5.95047 15.2814 5.95047 15.1834 6.04964Z" fill="#606061"/>
<path d="M18.514 3.76863C19.3957 3.57028 20.2773 3.37193 21.1589 3.17358C21.2569 3.4711 21.2569 3.66945 21.3548 3.96697C21.0609 4.06615 20.7671 4.16532 20.3752 4.26449C20.7671 5.85127 21.0609 7.43805 21.4528 9.02482C21.1589 9.124 20.865 9.124 20.5712 9.22317C20.1793 7.63639 19.8854 6.04962 19.4936 4.46284C19.1997 4.56201 18.9059 4.56201 18.612 4.66119C18.612 4.36367 18.514 4.06615 18.514 3.76863Z" fill="#606061"/>
<path d="M23.118 3.0744C23.4119 3.0744 23.7057 3.0744 23.9996 3.0744C24.0976 4.9587 24.0976 6.843 24.1955 8.7273C23.9016 8.7273 23.6078 8.7273 23.3139 8.7273C23.2159 6.843 23.2159 4.9587 23.118 3.0744Z" fill="#606061"/>
<path d="M26.7424 5.75209C27.1343 5.85126 27.5261 5.85126 27.9179 5.95043C27.9179 6.24796 27.82 6.4463 27.82 6.74382C27.4281 6.64465 27.0363 6.64465 26.6445 6.54548C26.5465 7.33887 26.4486 8.13225 26.2527 8.82647C25.9588 8.82647 25.6649 8.72729 25.371 8.72729C25.6649 6.843 25.9588 4.9587 26.2527 3.0744C27.0363 3.17358 27.82 3.27275 28.6036 3.4711C28.6036 3.76862 28.5057 3.96696 28.5057 4.26448C28.0159 4.16531 27.5261 4.16531 27.0363 4.06614C26.9384 4.66118 26.8404 5.15705 26.7424 5.75209Z" fill="#606061"/>
<path d="M30.5629 4.06616C30.8567 4.16534 31.1506 4.26451 31.4445 4.36368C30.8567 6.14881 30.171 7.93393 29.5833 9.71906C29.2894 9.61988 28.9955 9.52071 28.7017 9.42153C29.2894 7.63641 29.8772 5.85129 30.5629 4.06616Z" fill="#606061"/>
<path d="M33.0118 7.73556C33.4036 7.93391 33.6975 8.13226 34.0893 8.33061C33.9913 8.52895 33.7954 8.82647 33.6975 9.02482C33.3056 8.82647 33.0118 8.62813 32.6199 8.42978C32.326 8.92565 32.0322 9.42151 31.7383 9.91738C32.2281 10.2149 32.6199 10.4133 33.1097 10.7108C33.0118 10.9091 32.8158 11.2066 32.7179 11.405C32.0322 11.0083 31.3465 10.6116 30.5628 10.2149C31.5424 8.52895 32.424 6.94218 33.4036 5.25623C34.0893 5.65292 34.775 6.04961 35.4607 6.44631C35.3627 6.64466 35.1668 6.94218 35.0689 7.14052C34.5791 6.843 34.1872 6.64466 33.6975 6.34713C33.5995 6.843 33.3056 7.2397 33.0118 7.73556Z" fill="#606061"/>
<path d="M37.5178 7.83472C37.8117 8.13224 38.2035 8.52893 38.4974 8.82645C39.1831 9.42149 39.0851 10.1157 38.4974 10.8099C37.8117 11.5041 37.126 12.1984 36.5382 12.8926C35.9505 13.5868 35.2648 13.5868 34.5791 12.9917C34.2852 12.6942 33.8934 12.2975 33.5995 12C34.8729 10.6116 36.2443 9.22315 37.5178 7.83472ZM37.6158 9.0248C36.6362 10.0165 35.7546 11.0083 34.775 12C34.8729 12.0992 34.9709 12.1984 35.1668 12.3967C35.3627 12.595 35.5586 12.595 35.8525 12.2975C36.5382 11.6033 37.2239 10.9091 37.9096 10.1157C38.2035 9.81819 38.2035 9.61984 38.0076 9.42149C37.8117 9.32232 37.7137 9.12397 37.6158 9.0248Z" fill="#606061"/>
<path d="M39.5749 12.7934C39.5749 13.1901 39.379 13.4876 38.9872 13.4876C38.5953 13.4876 38.3015 13.2893 38.3015 12.8926C38.3015 12.4959 38.4974 12.1984 38.8892 12.1984C39.1831 12.0992 39.477 12.3967 39.5749 12.7934Z" fill="#606061"/>
<path d="M8.71822 15.6694C8.71822 16.0661 8.5223 16.3637 8.13047 16.3637C7.73864 16.3637 7.44476 16.1653 7.44476 15.7686C7.44476 15.3719 7.64068 15.0744 8.03251 15.0744C8.32638 15.0744 8.62026 15.3719 8.71822 15.6694Z" fill="#606061"/>
<path d="M8.6203 35.3058C8.6203 34.9091 8.81622 34.6116 9.20805 34.6116C9.59988 34.6116 9.89375 34.8099 9.89375 35.2066C9.89375 35.6033 9.69784 35.9008 9.306 35.9008C9.01213 35.9008 8.6203 35.7025 8.6203 35.3058Z" fill="#606061"/>
<path d="M39.8688 32.3306C39.8688 31.9339 40.0647 31.6364 40.4566 31.6364C40.8484 31.6364 41.1423 31.8348 41.1423 32.2315C41.1423 32.6281 40.9464 32.9257 40.5545 32.9257C40.2607 32.9257 39.8688 32.7273 39.8688 32.3306Z" fill="#606061"/>
<path d="M8.81622 21.4215C10.4815 21.2231 10.8733 20.5289 11.0693 19.7355L12.5386 19.6364L13.6162 30.9421L11.3631 31.0413L10.5795 22.4132L8.91418 22.6116L8.81622 21.4215Z" fill="#606061"/>
<path d="M15.2815 22.0165C15.0856 20.2314 16.1631 19.0413 18.3182 18.843C20.4733 18.6446 21.7467 19.5372 21.9426 21.3223L22.5304 27.1736C22.7263 28.9587 21.6487 30.1488 19.4937 30.3471C17.3386 30.5455 16.0651 29.6529 15.8692 27.8678L15.2815 22.0165ZM18.0243 27.7686C18.1223 28.562 18.6121 28.8595 19.2978 28.7604C19.9835 28.6612 20.3753 28.3637 20.3753 27.5703L19.7875 21.5207C19.6896 20.7273 19.1998 20.4298 18.5141 20.5289C17.8284 20.6281 17.4366 20.9256 17.4366 21.719L18.0243 27.7686Z" fill="#606061"/>
<path d="M23.2161 21.3223C23.0201 19.5372 24.0977 18.3471 26.2527 18.1488C28.4078 17.9504 29.6813 18.843 29.8772 20.6281L30.4649 26.4794C30.6608 28.2645 29.5833 29.4546 27.4282 29.6529C25.2732 29.8513 23.9997 28.9587 23.8038 27.1736L23.2161 21.3223ZM25.9589 27.0744C26.0568 27.8678 26.5466 28.1653 27.2323 28.0661C27.918 27.967 28.3099 27.6694 28.3099 26.8761L27.7221 20.8265C27.6242 20.0331 27.1344 19.7356 26.4487 19.8347C25.763 19.9339 25.3711 20.2314 25.3711 21.0248L25.9589 27.0744Z" fill="#606061"/>
<path d="M31.1506 19.5372C31.0527 18.3471 31.7384 17.6529 33.1098 17.5537C34.4812 17.4545 35.2649 17.9504 35.3628 19.1405L35.7546 22.8099C35.8526 24 35.1669 24.6942 33.7955 24.7934C32.4241 24.8926 31.6404 24.3967 31.5425 23.2066L31.1506 19.5372ZM32.9139 23.2066C32.9139 23.7025 33.2077 23.9008 33.6975 23.8017C34.1873 23.8017 34.3832 23.5041 34.3832 23.0083L33.9914 19.1405C33.9914 18.6446 33.5996 18.4463 33.2077 18.5455C32.718 18.5455 32.522 18.843 32.522 19.3388L32.9139 23.2066ZM38.6934 17.0579L39.9668 16.9587L35.4608 28.7603L34.1873 28.8595L38.6934 17.0579ZM38.4975 23.0083C38.3995 21.8182 39.0852 21.124 40.4566 21.0248C41.828 20.9256 42.6117 21.4215 42.7096 22.6116L43.1015 26.281C43.1994 27.4711 42.5137 28.1653 41.1423 28.2645C39.7709 28.3636 38.9873 27.8678 38.8893 26.6777L38.4975 23.0083ZM40.2607 26.6777C40.2607 27.1736 40.5546 27.3719 41.0444 27.2727C41.5342 27.2727 41.7301 26.9752 41.7301 26.4793L41.3382 22.6116C41.3382 22.1157 40.9464 21.9174 40.5546 22.0165C40.0648 22.0165 39.8689 22.3141 39.8689 22.8099L40.2607 26.6777Z" fill="#606061"/>
<path d="M37.028 35.5042C36.8321 35.405 36.6362 35.2066 36.4403 35.1075C35.6566 34.6116 35.5587 33.9174 35.9505 33.2232C36.4403 32.5289 37.126 32.4298 37.8117 32.9256C38.5953 33.5207 39.477 34.0165 40.2606 34.5124C41.0443 35.0083 41.2402 35.7025 40.7504 36.3967C40.2606 37.0909 39.5749 37.1901 38.7913 36.6942C38.5953 36.5951 38.4974 36.4959 38.3015 36.3967C38.4974 36.1984 38.5953 35.9008 38.7913 35.7025C38.9872 35.8017 39.0851 35.9008 39.281 36C39.5749 36.1984 39.8688 36.1984 39.9668 35.9008C40.0647 35.6033 40.0647 35.405 39.7708 35.2066C38.8892 34.6116 38.1056 34.1157 37.2239 33.5207C36.9301 33.3223 36.6362 33.3223 36.5382 33.6199C36.3423 33.8182 36.4403 34.1157 36.7341 34.3141C36.9301 34.5124 37.2239 34.6116 37.4199 34.8099C37.3219 35.0083 37.2239 35.3058 37.028 35.5042Z" fill="#606061"/>
<path d="M36.1464 38.0826C35.8525 38.3801 35.5587 38.6777 35.2648 38.876C35.0689 38.6777 34.873 38.4793 34.6771 38.281C34.9709 37.9834 35.2648 37.7851 35.5587 37.4876C35.1668 37.0909 34.775 36.6942 34.4811 36.1983C34.0893 36.4958 33.6975 36.8925 33.3056 37.1901C33.1097 36.9917 32.9138 36.7934 32.7179 36.595C33.3056 36.0991 33.8934 35.5041 34.4811 35.0082C35.7546 36.3967 37.028 37.7851 38.3015 39.2727C37.7137 39.8677 37.126 40.3636 36.5382 40.8595C36.3423 40.6611 36.1464 40.4628 35.9505 40.2644C36.3423 39.9669 36.7342 39.5702 37.126 39.2727C36.8321 38.876 36.5383 38.4793 36.1464 38.0826Z" fill="#606061"/>
<path d="M30.2689 38.1818C30.3669 38.281 30.4648 38.3802 30.6607 38.7769C30.7587 39.0744 30.9546 39.2727 31.0526 39.5702C31.2485 40.0661 31.5423 40.1653 31.9342 39.9669C32.0321 39.9669 32.1301 39.8678 32.2281 39.8678C31.8362 39.1736 31.5423 38.4793 31.1505 37.7851C31.4444 37.6859 31.6403 37.4876 31.9342 37.3884C32.8158 39.0744 33.6974 40.7603 34.579 42.4463C34.1872 42.6446 33.7954 42.843 33.4035 43.0413C32.6199 43.438 32.0321 43.2397 31.6403 42.4463C31.5423 42.3471 31.5423 42.1488 31.4444 42.0496C31.1505 41.5537 31.1505 41.157 31.4444 40.7603C30.9546 40.7603 30.6607 40.4628 30.3669 39.9669C30.2689 39.6694 30.073 39.4711 29.975 39.1735C29.8771 38.9752 29.7791 38.7769 29.5832 38.5785C29.7791 38.3802 30.073 38.281 30.2689 38.1818ZM33.4035 42.0496C33.1097 41.5537 32.8158 41.0578 32.6199 40.4628C32.5219 40.562 32.424 40.562 32.326 40.6612C32.0321 40.8595 31.9342 41.0578 32.1301 41.4545C32.2281 41.6529 32.326 41.7521 32.424 41.9504C32.6199 42.3471 32.8158 42.4463 33.1097 42.2479C33.2076 42.1488 33.3056 42.1488 33.4035 42.0496Z" fill="#606061"/>
<path d="M30.171 44.3306C29.2893 44.5289 28.4077 44.7273 27.4281 44.9256C27.3302 44.6281 27.3302 44.4298 27.2322 44.1322C27.5261 44.0331 27.82 44.0331 28.1139 43.9339C27.722 42.3471 27.3302 40.7603 27.0363 39.1736C27.3302 39.0744 27.6241 39.0744 27.9179 38.9752C28.3098 40.562 28.7016 42.1488 28.9955 43.7356C29.2893 43.6364 29.5832 43.6364 29.8771 43.5372C29.9751 43.8347 30.073 44.0331 30.171 44.3306Z" fill="#606061"/>
<path d="M25.3711 45.124C25.0772 45.124 24.7833 45.124 24.4894 45.124C24.3915 43.2397 24.3915 41.3554 24.2935 39.4711C24.5874 39.4711 24.8813 39.4711 25.1751 39.4711C25.2731 41.3554 25.2731 43.2397 25.3711 45.124Z" fill="#606061"/>
<path d="M21.7466 42.4463C21.3548 42.3471 20.963 42.3471 20.5711 42.2479C20.5711 41.9504 20.6691 41.7521 20.6691 41.4545C21.0609 41.5537 21.4528 41.5537 21.8446 41.6529C21.9425 40.8595 22.1385 40.0661 22.2364 39.3719C22.5303 39.3719 22.8242 39.4711 23.118 39.4711C22.8242 41.3554 22.5303 43.2397 22.1385 45.124C21.3548 45.0248 20.5711 44.8264 19.7875 44.7273C19.7875 44.4297 19.8854 44.2314 19.8854 43.9339C20.3752 44.033 20.865 44.1322 21.3548 44.1322C21.5507 43.5372 21.6487 42.9421 21.7466 42.4463Z" fill="#606061"/>
<path d="M17.8283 44.0331C17.5344 43.9339 17.2405 43.8347 16.9467 43.7356C17.6324 41.9504 18.3181 40.1653 19.0038 38.3802C19.2976 38.4794 19.5915 38.5785 19.8854 38.6777C19.1997 40.4628 18.514 42.248 17.8283 44.0331Z" fill="#606061"/>
<path d="M15.3794 40.2645C14.9875 40.0661 14.6937 39.8678 14.3018 39.5702C14.3998 39.3719 14.5957 39.0744 14.6937 38.876C15.0855 39.0744 15.3794 39.2727 15.7712 39.5702C16.0651 39.0744 16.3589 38.5785 16.6528 38.1818C16.261 37.8843 15.7712 37.686 15.3794 37.3884C15.4773 37.1901 15.6732 36.8926 15.7712 36.6942C16.4569 37.0909 17.1426 37.5868 17.8283 37.9835C16.8487 39.5702 15.8691 41.2562 14.7916 42.843C14.1059 42.4463 13.4202 41.9504 12.7345 41.5537C12.8325 41.3554 13.0284 41.0579 13.1263 40.8595C13.5182 41.157 14.0079 41.4545 14.3998 41.6529C14.8896 41.157 15.1834 40.7603 15.3794 40.2645Z" fill="#606061"/>
<path d="M10.9712 39.967C10.6774 39.6695 10.2855 39.2728 9.99165 38.9752C9.4039 38.281 9.4039 37.686 10.0896 37.0909C10.7753 36.3967 11.461 35.8017 12.1467 35.1075C12.8324 34.5124 13.4202 34.4133 14.1059 35.1075C14.3998 35.405 14.7916 35.8017 15.0855 36.0992C13.714 37.2893 12.3426 38.6777 10.9712 39.967ZM10.8733 38.6777C11.8528 37.7852 12.8324 36.7934 13.812 35.9009C13.714 35.8017 13.6161 35.7025 13.4202 35.5042C13.2243 35.3058 13.0283 35.3058 12.7345 35.6033C12.0488 36.2976 11.2651 36.9918 10.5794 37.5868C10.2855 37.8843 10.2855 38.0827 10.4814 38.281C10.6774 38.4794 10.7753 38.5786 10.8733 38.6777Z" fill="#606061"/>
</svg>
