<?xml version="1.0" encoding="utf-8"?>
<!-- Generator: Adobe Illustrator 23.0.6, SVG Export Plug-In . SVG Version: 6.00 Build 0)  -->
<svg version="1.1" id="Layer_1" xmlns="http://www.w3.org/2000/svg" xmlns:xlink="http://www.w3.org/1999/xlink" x="0px" y="0px"
	 viewBox="0 0 30 26.9" style="enable-background:new 0 0 30 26.9;" xml:space="preserve">
<style type="text/css">
	.st0{fill:#EAEAEA;}
	.st1{fill:#FFCF2F;}
	.st2{fill:#246C81;}
	.st3{fill:#FFFFFF;}
</style>
<g>
	<g>
		<g>
			<g>
				<g>
					<g>
						<circle class="st0" cx="14.7" cy="13.5" r="12.5"/>
					</g>
				</g>
			</g>
		</g>
	</g>
</g>
<g>
	<g>
		<g>
			<g>
				<path class="st1" d="M13.2,3.3c0-0.3-0.3-0.6-0.6-0.6L6,2.7C5.6,2.7,5.3,3,5.3,3.4l0,6.8l7.8,0L13.2,3.3z"/>
				<path class="st2" d="M5.4,10.5c-0.1,0-0.1,0-0.2-0.1c-0.1-0.1-0.1-0.1-0.1-0.2l0-6.8c0-0.5,0.4-0.9,0.9-0.9l6.5,0c0,0,0,0,0,0
					c0.5,0,0.9,0.4,0.9,0.9l0,6.8c0,0.2-0.1,0.3-0.3,0.3L5.4,10.5C5.4,10.5,5.4,10.5,5.4,10.5z M12.5,3C12.5,3,12.5,3,12.5,3L6,3
					C5.8,3,5.6,3.2,5.6,3.4l0,6.6l7.2,0l0-6.6C12.9,3.1,12.7,3,12.5,3z"/>
			</g>
			<g>
				
					<rect x="8.1" y="2.7" transform="matrix(-1 3.490131e-03 -3.490131e-03 -1 18.4619 6.9075)" class="st3" width="2.2" height="1.5"/>
				<path class="st2" d="M8.1,4.5c-0.1,0-0.1,0-0.2-0.1C7.9,4.4,7.9,4.3,7.9,4.2l0-1.5c0-0.1,0-0.1,0.1-0.2s0.1-0.1,0.2-0.1l2.2,0
					c0,0,0,0,0,0c0.2,0,0.3,0.1,0.3,0.3l0,1.5c0,0.2-0.1,0.3-0.3,0.3L8.1,4.5C8.1,4.5,8.1,4.5,8.1,4.5z M8.4,3l0,0.9l1.6,0L10,3
					L8.4,3z"/>
			</g>
			<g>
				<line class="st3" x1="8.5" y1="8.1" x2="8.2" y2="8.1"/>
				<path class="st2" d="M8.2,8.4c-0.2,0-0.3-0.1-0.3-0.3c0-0.2,0.1-0.3,0.3-0.3l0.3,0c0,0,0,0,0,0c0.2,0,0.3,0.1,0.3,0.3
					c0,0.2-0.1,0.3-0.3,0.3L8.2,8.4C8.2,8.4,8.2,8.4,8.2,8.4z"/>
			</g>
			<g>
				<line class="st3" x1="7.5" y1="8.1" x2="7.2" y2="8.1"/>
				<path class="st2" d="M7.2,8.4c-0.2,0-0.3-0.1-0.3-0.3c0-0.2,0.1-0.3,0.3-0.3l0.3,0c0,0,0,0,0,0c0.2,0,0.3,0.1,0.3,0.3
					c0,0.2-0.1,0.3-0.3,0.3L7.2,8.4C7.2,8.4,7.2,8.4,7.2,8.4z"/>
			</g>
			<g>
				<line class="st3" x1="6.5" y1="8.1" x2="6.2" y2="8.1"/>
				<path class="st2" d="M6.2,8.4C6,8.4,5.9,8.2,5.9,8.1c0-0.2,0.1-0.3,0.3-0.3l0.3,0c0,0,0,0,0,0c0.2,0,0.3,0.1,0.3,0.3
					c0,0.2-0.1,0.3-0.3,0.3L6.2,8.4C6.2,8.4,6.2,8.4,6.2,8.4z"/>
			</g>
		</g>
	</g>
	<g>
		<g>
			<circle class="st3" cx="24.9" cy="20.4" r="3.9"/>
			<path class="st2" d="M24.9,24.6c-2.3,0-4.2-1.9-4.2-4.2c0-2.3,1.9-4.2,4.2-4.2c0,0,0,0,0,0c1.1,0,2.2,0.4,3,1.2
				c0.8,0.8,1.2,1.8,1.2,3l0,0c0,1.1-0.4,2.2-1.2,3C27.1,24.2,26,24.6,24.9,24.6C24.9,24.6,24.9,24.6,24.9,24.6z M24.9,16.8
				C24.9,16.8,24.9,16.8,24.9,16.8c-2,0-3.7,1.6-3.6,3.7c0,1,0.4,1.9,1.1,2.6c0.7,0.7,1.6,1.1,2.6,1.1c0,0,0,0,0,0
				c1,0,1.9-0.4,2.6-1.1c0.7-0.7,1.1-1.6,1.1-2.6l0,0c0-1-0.4-1.9-1.1-2.6C26.7,17.1,25.8,16.8,24.9,16.8z"/>
		</g>
		<g>
			<path class="st2" d="M24.9,22.8c-0.6,0-1.3-0.3-1.7-0.7c-0.5-0.5-0.7-1.1-0.7-1.7c0-0.7,0.2-1.3,0.7-1.7c0.5-0.5,1.1-0.7,1.7-0.7
				c0,0,0,0,0,0c1.3,0,2.4,1.1,2.4,2.4l0,0c0,0.7-0.2,1.3-0.7,1.7C26.1,22.6,25.5,22.8,24.9,22.8C24.9,22.8,24.9,22.8,24.9,22.8z
				 M24.9,18.5C24.9,18.5,24.9,18.5,24.9,18.5c-0.5,0-1,0.2-1.3,0.6c-0.4,0.4-0.5,0.8-0.5,1.3c0,0.5,0.2,1,0.6,1.3
				c0.4,0.4,0.8,0.5,1.3,0.5c0,0,0,0,0,0c0.5,0,1-0.2,1.3-0.6c0.4-0.4,0.5-0.8,0.5-1.3l0,0C26.7,19.4,25.9,18.5,24.9,18.5z"/>
		</g>
		<g>
			<path class="st2" d="M22.5,7c-0.1,0-0.3,0-0.5-0.2c0,0,0,0,0,0l-1.3-1.2c0,0,0,0,0,0c-0.2-0.2-0.2-0.6,0-0.8c0,0,0,0,0,0L22,3.6
				c0,0,0,0,0,0c0.2-0.1,0.4-0.2,0.6-0.1c0.2,0.1,0.4,0.2,0.5,0.5c0.2,0.4,0.3,0.9,0.3,1.3c0,0.4-0.1,0.8-0.2,1.2
				c-0.1,0.3-0.3,0.5-0.5,0.5C22.7,7,22.6,7,22.5,7z M22.4,6.4c0.1,0,0.1,0.1,0.1,0.1l0,0c0,0,0.1,0,0.1-0.2
				c0.1-0.3,0.2-0.7,0.2-1.1c0-0.4-0.1-0.7-0.2-1.1C22.5,4,22.5,4,22.5,4c0,0,0,0-0.1,0.1l-1.2,1.1c0,0,0,0.1,0,0.1L22.4,6.4z"/>
		</g>
		<g>
			<path class="st3" d="M24.8,15.7c0.2,0,0.4,0,0.6,0l0,0L21,5.4C21,5,20.6,4.8,20.3,4.8l-0.7,0c-0.5,0-0.5,0.3-0.4,0.8l1.8,6.1
				c0.1,0.7-1,2.8-1.6,3.8c-0.2,0.3-0.6,0.6-1,0.6l-4.1,0c-0.9,0-1.4-0.7-1.2-1.6c0.3-0.9,0.9-2.5,0.9-2.5c0.3-0.9-0.7-1.6-1.5-1.6
				c0,0-0.4,0-1.8,0c-2.7,0-4.8,0.8-7.3,3.3c-2.9,2.9-3.1,5.6-2.3,5.6c0,0,16.7-0.1,17.6-0.1c0.8,0,1.5-0.4,1.9-1
				C21.4,16.7,23,15.7,24.8,15.7z"/>
			<path class="st2" d="M1.1,19.5c-0.3,0-0.5-0.2-0.6-0.4c-0.2-0.5-0.1-1.3,0.3-2.3c0.3-0.8,1-2,2.4-3.4c1.3-1.3,2.4-2.1,3.7-2.6
				c1.1-0.5,2.4-0.7,3.8-0.7c1.4,0,1.8,0,1.9,0c0.6,0,1.2,0.3,1.6,0.7c0.3,0.4,0.4,0.8,0.2,1.2c0,0,0,0,0,0c0,0-0.7,1.6-0.9,2.5
				c-0.1,0.3,0,0.6,0.1,0.9c0.2,0.2,0.5,0.4,0.8,0.4c0,0,0,0,0,0l4.1,0c0.3,0,0.6-0.2,0.7-0.4c0.8-1.4,1.6-3.1,1.6-3.6l-1.7-6.1
				c0,0,0,0,0-0.1c0-0.3-0.1-0.7,0.1-0.9c0.1-0.1,0.3-0.2,0.6-0.2l0.7,0c0,0,0,0,0,0c0.5,0,0.9,0.3,1.1,0.8l4.3,10.3
				c0,0.1,0,0.2,0,0.3C25.6,16,25.5,16,25.4,16c-0.2,0-0.4,0-0.5,0l0,0c-1.7,0-3.2,0.9-4,2.3c-0.4,0.8-1.2,1.2-2.2,1.2
				C17.8,19.4,1.1,19.5,1.1,19.5C1.1,19.5,1.1,19.5,1.1,19.5z M11.6,10.6c-0.3,0-0.6,0-1,0c-2.8,0-4.8,0.9-7.1,3.2
				c-2.3,2.3-2.8,4.5-2.6,5c0,0.1,0.1,0.1,0.1,0.1c0,0,16.7-0.1,17.6-0.1c0.7,0,1.3-0.3,1.7-0.9c0.9-1.6,2.6-2.6,4.5-2.6h0
				c0,0,0.1,0,0.1,0l-4.2-9.9c0,0,0,0,0,0C20.7,5.2,20.5,5,20.3,5c0,0,0,0,0,0l-0.7,0c-0.1,0-0.1,0-0.1,0c0,0,0,0.3,0,0.4l1.7,6.1
				c0,0,0,0,0,0c0.1,0.6-0.4,1.9-1.6,4c-0.2,0.4-0.7,0.7-1.2,0.7l-4.1,0c0,0,0,0,0,0c-0.5,0-1-0.2-1.2-0.6c-0.3-0.4-0.4-0.9-0.2-1.4
				c0.2-0.9,0.9-2.4,0.9-2.6c0.1-0.2,0-0.5-0.1-0.7c-0.2-0.3-0.7-0.5-1.1-0.5c0,0,0,0,0,0C12.5,10.6,12.3,10.6,11.6,10.6z"/>
		</g>
		<g>
			<path class="st3" d="M5,11.4l8.9,0c0.3,0,0.6-0.3,0.6-0.6l0,0c0-0.3-0.3-0.6-0.6-0.6l-8.9,0c-0.3,0-0.6,0.3-0.6,0.6l0,0
				C4.4,11.1,4.7,11.4,5,11.4z"/>
			<path class="st2" d="M5,11.7c-0.5,0-0.9-0.4-0.9-0.9c0-0.2,0.1-0.5,0.3-0.6C4.5,10,4.7,9.9,5,9.9l8.9,0c0,0,0,0,0,0
				c0.5,0,0.9,0.4,0.9,0.9c0,0.5-0.4,0.9-0.9,0.9L5,11.7L5,11.7C5,11.7,5,11.7,5,11.7z M5,11.4L5,11.4L5,11.4z M13.9,10.4
				C13.9,10.4,13.9,10.4,13.9,10.4l-8.9,0c-0.1,0-0.2,0-0.2,0.1c-0.1,0.1-0.1,0.1-0.1,0.2c0,0.2,0.1,0.3,0.3,0.3l8.9,0
				c0.2,0,0.3-0.1,0.3-0.3C14.2,10.6,14,10.4,13.9,10.4z"/>
		</g>
		<g>
			<path class="st2" d="M20.6,18.4c0,0-0.1,0-0.1,0c-0.1-0.1-0.2-0.2-0.1-0.4c0.9-1.6,2.6-2.6,4.5-2.6c0,0,0,0,0,0
				c1.5,0,3,0.7,4,1.8c0.1,0.1,0.1,0.3,0,0.4c-0.1,0.1-0.3,0.1-0.4,0c-0.9-1-2.2-1.6-3.6-1.6c0,0,0,0,0,0c-1.7,0-3.2,0.9-4,2.3
				C20.8,18.4,20.7,18.4,20.6,18.4z"/>
		</g>
		<g>
			<path class="st3" d="M1.4,19.2c0,0,1.6-3.8,5.4-4.9c1.9-0.6,2.9-0.1,3.4,0.5c0.4,0.6,0.5,1.6,0.2,2.2l-0.9,2.1"/>
			<path class="st2" d="M1.4,19.5c0,0-0.1,0-0.1,0c-0.1-0.1-0.2-0.2-0.2-0.4c0,0,0.4-1,1.3-2.1c0.8-1,2.2-2.4,4.3-3
				c1.2-0.3,2.8-0.5,3.7,0.6c0.5,0.6,0.6,1.7,0.2,2.5l-0.9,2.1c-0.1,0.1-0.2,0.2-0.4,0.1c-0.1-0.1-0.2-0.2-0.1-0.4l0.9-2.1
				c0.3-0.6,0.2-1.5-0.2-1.9c-0.6-0.7-1.6-0.9-3.1-0.4c-1.9,0.6-3.2,1.8-4,2.8c-0.8,1.1-1.2,2-1.2,2C1.6,19.4,1.5,19.5,1.4,19.5z"/>
		</g>
		<g>
			<line class="st3" x1="4.4" y1="16.7" x2="4.7" y2="18.1"/>
			<path class="st2" d="M4.7,18.4c-0.1,0-0.3-0.1-0.3-0.2l-0.3-1.4c0-0.2,0.1-0.3,0.2-0.3c0.2,0,0.3,0.1,0.3,0.2L4.9,18
				C5,18.2,4.9,18.3,4.7,18.4C4.7,18.4,4.7,18.4,4.7,18.4z"/>
		</g>
		<g>
			<line class="st3" x1="3.7" y1="17.3" x2="3.8" y2="18.2"/>
			<path class="st2" d="M3.8,18.5c-0.1,0-0.3-0.1-0.3-0.2l-0.2-0.8c0-0.2,0.1-0.3,0.2-0.3c0.2,0,0.3,0.1,0.3,0.2l0.2,0.8
				C4.1,18.3,4,18.4,3.8,18.5C3.9,18.5,3.9,18.5,3.8,18.5z"/>
		</g>
		<g>
			<line class="st3" x1="3" y1="17.9" x2="3.1" y2="18.5"/>
			<path class="st2" d="M3.1,18.7c-0.1,0-0.3-0.1-0.3-0.2L2.7,18c0-0.2,0.1-0.3,0.2-0.3c0.2,0,0.3,0.1,0.3,0.2l0.1,0.6
				C3.4,18.6,3.3,18.7,3.1,18.7C3.1,18.7,3.1,18.7,3.1,18.7z"/>
		</g>
		<g>
			<path class="st2" d="M20.2,5.9c-0.1,0-0.2-0.1-0.3-0.2l-0.3-0.8c-0.1-0.3-0.4-0.6-0.6-0.6c0,0,0,0,0,0l-1.3,0c0,0,0,0,0,0
				c-0.2,0-0.3-0.1-0.3-0.3c0-0.2,0.1-0.3,0.3-0.3l1.3,0c0,0,0,0,0,0c0.5,0,1,0.6,1.1,1l0.3,0.8C20.5,5.7,20.5,5.9,20.2,5.9
				C20.3,5.9,20.3,5.9,20.2,5.9z"/>
		</g>
		<g>
			<path class="st3" d="M18,4.5l-1.3,0c-0.3,0-0.5-0.2-0.5-0.5l0,0c0-0.3,0.2-0.5,0.5-0.5l1.3,0c0.3,0,0.5,0.2,0.5,0.5l0,0
				C18.4,4.3,18.2,4.5,18,4.5z"/>
			<path class="st2" d="M16.7,4.8c-0.2,0-0.4-0.1-0.5-0.2c-0.1-0.1-0.2-0.3-0.2-0.5c0-0.2,0.1-0.4,0.2-0.5c0.1-0.1,0.3-0.2,0.5-0.2
				l1.3,0c0.4,0,0.8,0.3,0.8,0.8c0,0.2-0.1,0.4-0.2,0.5c-0.1,0.1-0.3,0.2-0.5,0.2L16.7,4.8C16.7,4.8,16.7,4.8,16.7,4.8z M18,3.9
				C18,3.9,18,3.9,18,3.9l-1.3,0c-0.1,0-0.1,0-0.1,0.1c0,0-0.1,0.1-0.1,0.1c0,0.1,0,0.1,0.1,0.1c0,0,0.1,0.1,0.1,0.1c0,0,0,0,0,0
				l1.3,0l0,0c0.1,0,0.1,0,0.1-0.1c0,0,0.1-0.1,0.1-0.1C18.2,3.9,18.1,3.9,18,3.9z"/>
		</g>
		<g>
			<line class="st3" x1="10" y1="17.9" x2="20.7" y2="17.8"/>
			<path class="st2" d="M10,18.2c-0.2,0-0.3-0.1-0.3-0.3c0-0.2,0.1-0.3,0.3-0.3l10.7,0c0,0,0,0,0,0c0.2,0,0.3,0.1,0.3,0.3
				c0,0.2-0.1,0.3-0.3,0.3L10,18.2C10,18.2,10,18.2,10,18.2z"/>
		</g>
		<g>
			<circle class="st3" cx="5.7" cy="20.5" r="3.9"/>
			<path class="st2" d="M5.7,24.7c-2.3,0-4.2-1.9-4.2-4.2c0-2.3,1.9-4.2,4.2-4.2c0,0,0,0,0,0c2.3,0,4.2,1.9,4.2,4.2
				C9.9,22.8,8,24.7,5.7,24.7C5.7,24.7,5.7,24.7,5.7,24.7z M5.7,16.8C5.7,16.8,5.7,16.8,5.7,16.8c-2,0-3.7,1.6-3.6,3.7
				c0,2,1.6,3.6,3.6,3.6c0,0,0,0,0,0c2,0,3.6-1.6,3.6-3.7C9.3,18.4,7.7,16.8,5.7,16.8z"/>
		</g>
		<g>
			<path class="st2" d="M5.7,22.9c-1.3,0-2.4-1.1-2.4-2.4c0-1.3,1.1-2.4,2.4-2.5c0,0,0,0,0,0c1.3,0,2.4,1.1,2.4,2.4
				C8.1,21.8,7,22.9,5.7,22.9C5.7,22.9,5.7,22.9,5.7,22.9z M5.7,18.6C5.7,18.6,5.7,18.6,5.7,18.6c-1,0-1.9,0.9-1.9,1.9
				c0,1,0.8,1.9,1.9,1.9c0,0,0,0,0,0c1,0,1.9-0.9,1.9-1.9C7.6,19.4,6.7,18.6,5.7,18.6z"/>
		</g>
	</g>
</g>
</svg>
