<?xml version="1.0" encoding="utf-8"?>
<!-- Generator: Adobe Illustrator 23.0.4, SVG Export Plug-In . SVG Version: 6.00 Build 0)  -->
<svg version="1.1" id="Layer_1" xmlns="http://www.w3.org/2000/svg" xmlns:xlink="http://www.w3.org/1999/xlink" x="0px" y="0px"
	 viewBox="0 0 50 50" style="enable-background:new 0 0 50 50;" xml:space="preserve">
<style type="text/css">
	.st0{fill:#606061;}
	.st1{fill:#606162;}
</style>
<g>
	<path class="st0" d="M33,32.3V24c0-1.1-0.9-1.9-1.9-1.9h-0.3v-2.3c0-3-2.4-5.4-5.4-5.4S20,16.7,20,19.7v2.3h-0.3
		c-1.1,0-1.9,0.9-1.9,1.9v8.3c0,1.1,0.9,1.9,1.9,1.9h11.4C32.2,34.2,33,33.4,33,32.3z M21,19.7c0-2.4,2-4.4,4.4-4.4s4.4,2,4.4,4.4
		v2.3h-2.1v-2.5c0-1.3-1.1-2.3-2.3-2.3s-2.3,1-2.3,2.3v2.5H21V19.7z M24.1,19.6c0-0.7,0.6-1.3,1.3-1.3c0.7,0,1.3,0.6,1.3,1.3v2.5
		h-2.7V19.6z M18.8,32.3V24c0-0.5,0.4-0.9,0.9-0.9h11.4c0.5,0,0.9,0.4,0.9,0.9v8.3c0,0.5-0.4,0.9-0.9,0.9H19.7
		C19.2,33.2,18.8,32.8,18.8,32.3z"/>
</g>
<g>
	<path class="st0" d="M25.4,26.1c-0.9,0-1.6,0.7-1.6,1.6v2c0,0.9,0.7,1.6,1.6,1.6c0.9,0,1.6-0.7,1.6-1.6v-2
		C27,26.8,26.3,26.1,25.4,26.1z M26,29.7c0,0.3-0.3,0.6-0.6,0.6s-0.6-0.3-0.6-0.6v-2c0-0.3,0.3-0.6,0.6-0.6s0.6,0.3,0.6,0.6V29.7z"
		/>
</g>
<g>
	<g>
		<path class="st0" d="M9,18.3L9,18.3c0.5,0.2,1.1,0,1.3-0.4c0.2-0.5,0.1-1.1-0.4-1.3l0,0c-0.5-0.2-1.1,0-1.3,0.4
			C8.3,17.4,8.5,18,9,18.3z"/>
	</g>
	<g>
		<path class="st0" d="M7.5,23.9L7.5,23.9c0.6,0.1,1-0.3,1.1-0.8c0.1-0.5-0.3-1-0.8-1.1l0,0c-0.5-0.1-1,0.3-1.1,0.8
			C6.6,23.3,7,23.8,7.5,23.9z"/>
	</g>
	<g>
		<path class="st0" d="M8,29.7c0.5-0.1,0.9-0.6,0.8-1.1c-0.1-0.5-0.6-0.9-1.1-0.8l0,0c-0.5,0.1-0.9,0.6-0.8,1.1
			C6.9,29.4,7.5,29.8,8,29.7L8,29.7z"/>
	</g>
</g>
<g>
	<g>
		<path class="st0" d="M43.2,27.8L43.2,27.8c-0.5-0.1-1.1,0.3-1.2,0.8c-0.1,0.5,0.2,1.1,0.8,1.2l0,0c0.5,0.1,1-0.3,1.1-0.8
			C44.1,28.4,43.7,27.9,43.2,27.8z"/>
	</g>
	<g>
		<path class="st0" d="M42.2,23.2c0.1,0.5,0.6,0.9,1.1,0.8l0,0c0.5-0.1,0.9-0.6,0.8-1.1C44,22.4,43.6,22,43,22l0,0
			C42.5,22.1,42.1,22.6,42.2,23.2z"/>
	</g>
	<g>
		<path class="st0" d="M41.9,18.4L41.9,18.4c0.5-0.2,0.7-0.8,0.5-1.3c-0.2-0.5-0.8-0.7-1.3-0.5l0,0c-0.5,0.2-0.7,0.8-0.4,1.3
			C40.8,18.4,41.4,18.6,41.9,18.4z"/>
	</g>
</g>
<g>
	<path class="st0" d="M25.4,1.5C12.2,1.5,1.5,12.2,1.5,25.4c0,13.2,10.7,23.9,23.9,23.9s23.9-10.7,23.9-23.9
		C49.3,12.2,38.6,1.5,25.4,1.5z M25.4,48.3C12.8,48.3,2.5,38,2.5,25.4c0-12.6,10.3-22.9,22.9-22.9s22.9,10.3,22.9,22.9
		C48.3,38,38,48.3,25.4,48.3z"/>
</g>
<g>
	<path class="st1" d="M16.8,42.8c-0.2,0-0.5,0-0.8-0.2c-1-0.4-1.3-1.2-1-2.1c0.4-1,1.3-1.3,2.2-1c0.4,0.1,0.6,0.3,0.7,0.4l-0.3,0.4
		c-0.1-0.1-0.3-0.2-0.5-0.3c-0.6-0.2-1.2,0-1.5,0.7c-0.3,0.7,0,1.2,0.6,1.5c0.2,0.1,0.5,0.1,0.6,0.1L16.8,42.8z"/>
	<path class="st1" d="M19,40.2l-0.3,1.3l1.3,0.3l0.3-1.3l0.6,0.2l-0.8,3.1l-0.6-0.2l0.4-1.4l-1.3-0.3l-0.4,1.4l-0.6-0.2l0.8-3.1
		L19,40.2z"/>
	<path class="st1" d="M23.1,42.8l-1.2-0.2l-0.1,0.9l1.3,0.2l-0.1,0.5L21.1,44l0.5-3.2l1.9,0.3l-0.1,0.5l-1.3-0.2L22,42.2l1.2,0.2
		L23.1,42.8z"/>
	<path class="st1" d="M26.3,44.4c-0.1,0.1-0.5,0.1-0.8,0.1c-1,0-1.6-0.7-1.6-1.7c0.1-1.1,0.8-1.7,1.8-1.6c0.4,0,0.7,0.1,0.8,0.2
		l-0.2,0.5c-0.2-0.1-0.4-0.1-0.6-0.2c-0.7,0-1.2,0.4-1.2,1.1c0,0.7,0.4,1.2,1.1,1.2c0.2,0,0.5,0,0.6-0.1L26.3,44.4z"/>
	<path class="st1" d="M26.9,41.2l0.6,0l0.1,1.5l0,0c0.1-0.1,0.1-0.2,0.2-0.4l0.8-1.2l0.7,0l-1,1.4l1.3,1.8l-0.7,0l-1-1.4l-0.3,0.4
		l0.1,1.1l-0.6,0L26.9,41.2z"/>
	<path class="st1" d="M32.7,42c0.2,1.1-0.3,1.8-1.2,2c-0.9,0.2-1.6-0.4-1.8-1.3c-0.2-1,0.3-1.8,1.2-2C31.8,40.5,32.5,41.1,32.7,42z
		 M30.3,42.5c0.1,0.6,0.5,1.1,1.1,1c0.6-0.1,0.8-0.7,0.6-1.4c-0.1-0.6-0.5-1.1-1.1-1C30.4,41.3,30.2,41.9,30.3,42.5z"/>
	<path class="st1" d="M33.4,40.1l0.6,1.8c0.2,0.6,0.5,0.8,0.9,0.7c0.4-0.1,0.5-0.5,0.3-1.1l-0.6-1.8l0.6-0.2l0.6,1.7
		c0.3,0.9,0,1.5-0.8,1.8c-0.7,0.2-1.3,0-1.6-1l-0.6-1.7L33.4,40.1z"/>
	<path class="st1" d="M36.6,39.4l-0.8,0.4l-0.2-0.4l2.2-1l0.2,0.4l-0.8,0.4l1.2,2.5l-0.5,0.3L36.6,39.4z"/>
</g>
</svg>
