<?xml version="1.0" encoding="utf-8"?>
<!-- Generator: Adobe Illustrator 23.0.4, SVG Export Plug-In . SVG Version: 6.00 Build 0)  -->
<svg version="1.1" id="Layer_1" xmlns="http://www.w3.org/2000/svg" xmlns:xlink="http://www.w3.org/1999/xlink" x="0px" y="0px"
	 viewBox="0 0 50 50" style="enable-background:new 0 0 50 50;" xml:space="preserve">
<style type="text/css">
	.st0{fill:#606061;}
	.st1{fill:#606162;}
</style>
<g>
	<g>
		<path class="st0" d="M25.1,1.9c-13,0-23.6,10.6-23.6,23.6c0,13,10.6,23.6,23.6,23.6s23.6-10.6,23.6-23.6
			C48.7,12.5,38.2,1.9,25.1,1.9z M25.1,48.1C12.7,48.1,2.6,38,2.6,25.5C2.6,13,12.7,2.9,25.1,2.9S47.7,13,47.7,25.5
			C47.7,38,37.6,48.1,25.1,48.1z"/>
	</g>
	<g>
		<path class="st0" d="M33.3,25h3.4c0.3,0,0.5-0.2,0.5-0.5c0-0.3-0.2-0.5-0.5-0.5h-2.9v-3.1c0-0.3-0.2-0.5-0.5-0.5
			c-0.3,0-0.5,0.2-0.5,0.5v3.6C32.8,24.8,33,25,33.3,25z"/>
	</g>
	<g>
		<path class="st0" d="M17.6,25.7c0.3,0,0.5-0.2,0.5-0.5c0-0.3-0.2-0.5-0.5-0.5H9.5c-0.3,0-0.5,0.2-0.5,0.5c0,0.3,0.2,0.5,0.5,0.5
			H17.6z"/>
	</g>
	<g>
		<path class="st0" d="M20.8,22.4c0-0.3-0.2-0.5-0.5-0.5h-8.1c-0.3,0-0.5,0.2-0.5,0.5c0,0.3,0.2,0.5,0.5,0.5h8.1
			C20.5,22.9,20.8,22.6,20.8,22.4z"/>
	</g>
	<g>
		<path class="st0" d="M14,21c0.3,0,0.5-0.2,0.5-0.5v-1.8c0-0.2,0.2-0.4,0.4-0.4l13.6,0c0.2,0,0.4,0.2,0.4,0.4v1.7v8.4
			c0,0.2-0.2,0.4-0.4,0.4h-5.7c-0.2-1.4-1.5-2.5-3-2.5c-1.5,0-2.7,1.1-3,2.5H15c-0.2,0-0.4-0.2-0.4-0.4v-1.7c0-0.3-0.2-0.5-0.5-0.5
			c-0.3,0-0.5,0.2-0.5,0.5v1.7c0,0.8,0.6,1.4,1.4,1.4h1.9c0.2,1.4,1.5,2.5,3,2.5c1.5,0,2.7-1.1,3-2.5h5.7c0.4,0,0.7-0.1,0.9-0.4
			c0.3,0.2,0.6,0.4,0.9,0.4h0.5c0.2,1.4,1.5,2.5,3,2.5c1.5,0,2.7-1.1,3-2.5h0.5c0.8,0,1.4-0.6,1.4-1.4v-4.2c0-0.2-0.1-0.5-0.2-0.7
			l-2.3-4.2C36,19.3,35.6,19,35,19h-4.6c-0.2,0-0.3,0-0.4,0.1v-0.4c0-0.8-0.6-1.4-1.4-1.4l-13.6,0c-0.8,0-1.4,0.6-1.4,1.4v1.8
			C13.6,20.7,13.8,21,14,21z M19.9,31.8c-1.1,0-2-0.9-2-2c0-1.1,0.9-2,2-2c1.1,0,2,0.9,2,2c0,0,0,0,0,0c0,0,0,0,0,0
			C21.9,30.9,21,31.8,19.9,31.8z M33.9,31.8c-1.1,0-2-0.9-2-2c0-1.1,0.9-2,2-2c1.1,0,2,0.9,2,2C35.9,30.9,35,31.8,33.9,31.8z
			 M30.5,20H35c0.2,0,0.3,0.1,0.4,0.2l2.3,4.2c0,0.1,0.1,0.1,0.1,0.2v4.2c0,0.2-0.2,0.4-0.4,0.4h-0.5c-0.2-1.4-1.5-2.5-3-2.5
			c-1.5,0-2.7,1.1-3,2.5h-0.5c-0.2,0-0.4-0.2-0.4-0.4v-8.4C30,20.2,30.2,20,30.5,20z"/>
	</g>
</g>
<g>
	<g>
		<path class="st0" d="M7.1,20L7.1,20c0.5,0.2,1.1-0.1,1.2-0.6c0.2-0.5-0.1-1.1-0.6-1.2l0,0c-0.5-0.2-1.1,0.1-1.2,0.6
			C6.3,19.3,6.6,19.8,7.1,20z"/>
	</g>
	<g>
		<path class="st0" d="M6.5,25.7L6.5,25.7c0.5,0,1-0.4,1-1c0-0.5-0.4-1-1-1l0,0c-0.5,0-1,0.4-1,1C5.5,25.3,6,25.7,6.5,25.7z"/>
	</g>
	<g>
		<path class="st0" d="M7.7,31.2c0.5-0.2,0.8-0.7,0.6-1.2c-0.2-0.5-0.7-0.8-1.2-0.6l0,0c-0.5,0.2-0.8,0.7-0.6,1.2
			C6.7,31.1,7.2,31.4,7.7,31.2L7.7,31.2z"/>
	</g>
</g>
<g>
	<g>
		<path class="st0" d="M44.5,29.3L44.5,29.3c-0.5-0.1-1,0.2-1.1,0.8c-0.1,0.5,0.2,1,0.8,1.1l0,0c0.5,0.1,1-0.2,1.1-0.8
			C45.3,29.9,45,29.4,44.5,29.3z"/>
	</g>
	<g>
		<path class="st0" d="M43.5,24.7c0.1,0.5,0.6,0.9,1.1,0.8l0,0c0.5-0.1,0.9-0.6,0.8-1.1c-0.1-0.5-0.6-0.9-1.1-0.8l0,0
			C43.8,23.7,43.4,24.2,43.5,24.7z"/>
	</g>
	<g>
		<path class="st0" d="M43.2,20L43.2,20c0.5-0.2,0.7-0.8,0.4-1.3c-0.2-0.5-0.8-0.7-1.3-0.4l0,0c-0.5,0.2-0.7,0.8-0.4,1.3
			C42.1,20.1,42.7,20.3,43.2,20z"/>
	</g>
</g>
<g>
</g>
<g>
	<path class="st1" d="M15.9,38.2c0.3,0,0.6,0.1,0.9,0.2c0.6,0.2,0.9,0.4,1.1,0.8c0.2,0.3,0.3,0.8,0.1,1.3c-0.2,0.5-0.5,0.9-0.9,1
		c-0.4,0.2-0.9,0.2-1.5,0c-0.3-0.1-0.6-0.2-0.7-0.3L15.9,38.2z M15.6,41c0.1,0,0.2,0.1,0.3,0.1c0.7,0.2,1.3,0,1.5-0.8
		c0.2-0.7,0-1.2-0.7-1.4c-0.2-0.1-0.3-0.1-0.4-0.1L15.6,41z"/>
	<path class="st1" d="M20.4,41.3L19.3,41l-0.2,0.9l1.3,0.3l-0.1,0.5l-1.9-0.4l0.7-3.1l1.8,0.4L20.8,40l-1.2-0.3l-0.2,0.8l1.2,0.3
		L20.4,41.3z"/>
	<path class="st1" d="M21.6,39.7l0.6,0.1l-0.3,2.7l1.3,0.2L23.1,43l-1.9-0.2L21.6,39.7z"/>
	<path class="st1" d="M24.6,39.9l-0.1,3.2l-0.6,0l0.1-3.2L24.6,39.9z"/>
	<path class="st1" d="M26.3,43.1L25.1,40l0.6,0l0.5,1.4c0.1,0.4,0.3,0.8,0.4,1.1h0c0.1-0.4,0.2-0.8,0.3-1.2l0.4-1.5l0.6,0L27,43.1
		L26.3,43.1z"/>
	<path class="st1" d="M30.4,41.2l-1.2,0.2l0.2,0.9l1.3-0.2l0.1,0.5l-1.9,0.3l-0.5-3.1l1.8-0.3l0.1,0.5L29,40.1l0.1,0.8l1.2-0.2
		L30.4,41.2z"/>
	<path class="st1" d="M30.9,39.3c0.2-0.1,0.5-0.2,0.8-0.3c0.4-0.1,0.8-0.1,1,0c0.2,0.1,0.4,0.3,0.4,0.5c0.1,0.4-0.1,0.7-0.3,0.9l0,0
		c0.2,0,0.4,0.2,0.6,0.5c0.2,0.4,0.4,0.7,0.5,0.8l-0.6,0.2c-0.1-0.1-0.2-0.3-0.4-0.7c-0.2-0.4-0.4-0.5-0.7-0.4l-0.3,0.1l0.4,1.3
		l-0.6,0.2L30.9,39.3z M31.8,40.5l0.3-0.1c0.4-0.1,0.6-0.4,0.5-0.7c-0.1-0.3-0.4-0.4-0.7-0.3c-0.2,0.1-0.3,0.1-0.3,0.1L31.8,40.5z"
		/>
	<path class="st1" d="M35.3,41.1l-0.5-1.2l-1.6-1.3l0.6-0.3l0.7,0.6c0.2,0.2,0.3,0.3,0.5,0.5l0,0c0-0.2,0-0.4,0-0.7l0-0.9l0.6-0.3
		l-0.3,2.1l0.5,1.2L35.3,41.1z"/>
</g>
</svg>
