<?xml version="1.0" encoding="utf-8"?>
<!-- Generator: Adobe Illustrator 23.0.4, SVG Export Plug-In . SVG Version: 6.00 Build 0)  -->
<svg version="1.1" id="Layer_1" xmlns="http://www.w3.org/2000/svg" xmlns:xlink="http://www.w3.org/1999/xlink" x="0px" y="0px"
	 viewBox="0 0 50 50" style="enable-background:new 0 0 50 50;" xml:space="preserve">
<style type="text/css">
	.st0{fill:#606061;}
	.st1{fill:#606263;}
	.st2{fill:#363432;}
</style>
<g>
	<g>
		<path class="st0" d="M25.1,0.7C11.5,0.7,0.5,11.6,0.5,24.9c0,13.3,11,24.2,24.5,24.2s24.5-10.8,24.5-24.2
			C49.6,11.6,38.6,0.7,25.1,0.7z M25.1,48.1c-13,0-23.5-10.4-23.5-23.2c0-12.8,10.5-23.2,23.5-23.2s23.5,10.4,23.5,23.2
			C48.6,37.7,38,48.1,25.1,48.1z"/>
	</g>
	<g>
		<polygon class="st1" points="46.8,15.9 1.8,20.6 1.8,19.9 46.7,15.2 		"/>
		<polygon class="st1" points="48.6,30.5 3,34.7 2.9,34 48.5,29.8 		"/>
		<g>
			<g>
				<path class="st1" d="M24,11.2c-4.5,0.4-8.3,3-10.4,6.6l0.9-0.1c2.1-3.2,5.5-5.4,9.6-5.8c4.1-0.4,7.9,1.2,10.5,3.9l0.9-0.1
					C32.7,12.6,28.5,10.8,24,11.2z"/>
			</g>
			<g>
				<path class="st1" d="M35.6,32.4c-2.1,2.8-5.3,4.8-9.1,5.2c-3.8,0.4-7.3-1-9.9-3.3l-0.9,0.1c2.8,2.8,6.7,4.4,10.9,4
					c4.2-0.4,7.8-2.7,10-6L35.6,32.4z"/>
			</g>
		</g>
		<g>
			<path class="st1" d="M12.1,13.2c0.2,0.2,0.4,0.3,0.6,0.5c0.8,0.5,0.9,1.2,0.4,1.9c-0.5,0.7-1.2,0.8-2,0.2
				c-0.8-0.6-1.6-1.2-2.5-1.8c-0.8-0.6-0.9-1.2-0.4-1.9c0.5-0.7,1.2-0.8,2-0.2c0.2,0.1,0.3,0.2,0.5,0.3c-0.2,0.2-0.3,0.5-0.5,0.7
				c-0.2-0.1-0.3-0.2-0.5-0.4c-0.3-0.2-0.6-0.2-0.7,0c-0.2,0.2-0.2,0.5,0.2,0.7c0.8,0.6,1.7,1.2,2.5,1.9c0.3,0.2,0.6,0.2,0.7,0
				c0.2-0.2,0.2-0.5-0.2-0.7c-0.2-0.2-0.5-0.3-0.7-0.5C11.7,13.7,11.9,13.4,12.1,13.2z"/>
			<path class="st1" d="M13.1,10.6c0.3-0.3,0.6-0.5,1-0.8c0.2,0.2,0.4,0.4,0.5,0.6c-0.3,0.3-0.6,0.5-1,0.8c0.4,0.4,0.7,0.9,1.1,1.3
				c0.4-0.3,0.8-0.7,1.2-1c0.2,0.2,0.4,0.4,0.5,0.6c-0.6,0.5-1.3,1-1.9,1.6c-1.3-1.5-2.5-2.9-3.7-4.4c0.6-0.5,1.3-1,1.9-1.6
				c0.2,0.2,0.4,0.4,0.5,0.6c-0.4,0.3-0.8,0.7-1.2,1C12.4,9.8,12.8,10.2,13.1,10.6z"/>
			<path class="st1" d="M19.1,10.8c-0.1-0.1-0.2-0.2-0.4-0.6c-0.1-0.3-0.3-0.5-0.4-0.8c-0.2-0.5-0.5-0.6-0.9-0.4
				c-0.1,0-0.2,0.1-0.3,0.1c0.3,0.7,0.7,1.4,1,2.1c-0.3,0.1-0.5,0.3-0.8,0.4c-0.8-1.7-1.7-3.5-2.5-5.2c0.4-0.2,0.8-0.4,1.2-0.6
				c0.8-0.4,1.4-0.2,1.8,0.6c0.1,0.1,0.1,0.3,0.2,0.4c0.3,0.5,0.3,1,0,1.3c0,0,0,0,0,0c0.5,0,0.8,0.3,1.1,0.8
				c0.1,0.3,0.3,0.5,0.4,0.8c0.1,0.3,0.2,0.4,0.4,0.6C19.6,10.5,19.4,10.7,19.1,10.8z M16,6.8c0.3,0.5,0.5,1.1,0.8,1.6
				c0.1-0.1,0.2-0.1,0.3-0.2c0.3-0.1,0.4-0.4,0.2-0.8c-0.1-0.2-0.2-0.3-0.2-0.5c-0.2-0.4-0.4-0.5-0.7-0.3C16.3,6.7,16.1,6.7,16,6.8z
				"/>
			<path class="st1" d="M19.4,4.5c0.9-0.2,1.8-0.4,2.7-0.6c0.1,0.3,0.1,0.5,0.2,0.8C22,4.8,21.7,4.9,21.3,5c0.4,1.6,0.7,3.2,1.1,4.8
				c-0.3,0.1-0.6,0.1-0.9,0.2c-0.4-1.6-0.7-3.2-1.1-4.8c-0.3,0.1-0.6,0.1-0.9,0.2C19.5,5.1,19.4,4.8,19.4,4.5z"/>
			<path class="st1" d="M24.1,3.8c0.3,0,0.6,0,0.9,0c0.1,1.9,0.1,3.8,0.2,5.7c-0.3,0-0.6,0-0.9,0C24.2,7.6,24.2,5.7,24.1,3.8z"/>
			<path class="st1" d="M27.8,6.5c0.4,0.1,0.8,0.1,1.2,0.2c0,0.3-0.1,0.5-0.1,0.8c-0.4-0.1-0.8-0.1-1.2-0.2
				c-0.1,0.8-0.2,1.6-0.4,2.3c-0.3,0-0.6-0.1-0.9-0.1c0.3-1.9,0.6-3.8,0.9-5.7c0.8,0.1,1.6,0.2,2.4,0.4c0,0.3-0.1,0.5-0.1,0.8
				c-0.5-0.1-1-0.1-1.5-0.2C28,5.4,27.9,5.9,27.8,6.5z"/>
			<path class="st1" d="M31.7,4.8c0.3,0.1,0.6,0.2,0.9,0.3c-0.6,1.8-1.3,3.6-1.9,5.4c-0.3-0.1-0.6-0.2-0.9-0.3
				C30.4,8.4,31,6.6,31.7,4.8z"/>
			<path class="st1" d="M34.2,8.5c0.4,0.2,0.7,0.4,1.1,0.6c-0.1,0.2-0.3,0.5-0.4,0.7c-0.4-0.2-0.7-0.4-1.1-0.6
				c-0.3,0.5-0.6,1-0.9,1.5c0.5,0.3,0.9,0.5,1.4,0.8c-0.1,0.2-0.3,0.5-0.4,0.7c-0.7-0.4-1.4-0.8-2.2-1.2c1-1.7,1.9-3.3,2.9-5
				c0.7,0.4,1.4,0.8,2.1,1.2c-0.1,0.2-0.3,0.5-0.4,0.7c-0.5-0.3-0.9-0.5-1.4-0.8C34.8,7.6,34.5,8,34.2,8.5z"/>
			<path class="st1" d="M38.8,8.6c0.3,0.3,0.7,0.7,1,1c0.7,0.6,0.6,1.3,0,2c-0.7,0.7-1.4,1.4-2,2.1c-0.6,0.7-1.3,0.7-2,0.1
				c-0.3-0.3-0.7-0.7-1-1C36.1,11.4,37.5,10,38.8,8.6z M38.9,9.8c-1,1-1.9,2-2.9,3c0.1,0.1,0.2,0.2,0.4,0.4c0.2,0.2,0.4,0.2,0.7-0.1
				c0.7-0.7,1.4-1.4,2.1-2.2c0.3-0.3,0.3-0.5,0.1-0.7C39.1,10.1,39,9.9,38.9,9.8z"/>
		</g>
		<g>
			<g>
				<path class="st2" d="M40.9,13.6c0,0.4-0.2,0.7-0.6,0.7c-0.4,0-0.7-0.2-0.7-0.6c0-0.4,0.2-0.7,0.6-0.7
					C40.5,12.9,40.8,13.2,40.9,13.6z"/>
			</g>
			<path class="st2" d="M9.4,16.5c0,0.4-0.2,0.7-0.6,0.7c-0.4,0-0.7-0.2-0.7-0.6c0-0.4,0.2-0.7,0.6-0.7C9,15.9,9.3,16.2,9.4,16.5z"
				/>
		</g>
		<g>
			<g>
				<path class="st2" d="M9.3,36.3c0-0.4,0.2-0.7,0.6-0.7c0.4,0,0.7,0.2,0.7,0.6c0,0.4-0.2,0.7-0.6,0.7C9.7,36.9,9.3,36.7,9.3,36.3z
					"/>
			</g>
			<path class="st2" d="M41.2,33.3c0-0.4,0.2-0.7,0.6-0.7c0.4,0,0.7,0.2,0.7,0.6c0,0.4-0.2,0.7-0.6,0.7
				C41.6,33.9,41.2,33.7,41.2,33.3z"/>
		</g>
		<g>
			<path class="st1" d="M9.5,22.3c1.7-0.2,2.1-0.9,2.3-1.7l1.5-0.1l1.1,11.4L12.1,32l-0.8-8.7l-1.7,0.2L9.5,22.3z"/>
			<path class="st1" d="M16.1,22.9c-0.2-1.8,0.9-3,3.1-3.2c2.2-0.2,3.5,0.7,3.7,2.5l0.6,5.9c0.2,1.8-0.9,3-3.1,3.2
				c-2.2,0.2-3.5-0.7-3.7-2.5L16.1,22.9z M18.9,28.7c0.1,0.8,0.6,1.1,1.3,1c0.7-0.1,1.1-0.4,1.1-1.2l-0.6-6.1
				c-0.1-0.8-0.6-1.1-1.3-1c-0.7,0.1-1.1,0.4-1.1,1.2L18.9,28.7z"/>
			<path class="st1" d="M24.2,22.2c-0.2-1.8,0.9-3,3.1-3.2c2.2-0.2,3.5,0.7,3.7,2.5l0.6,5.9c0.2,1.8-0.9,3-3.1,3.2
				c-2.2,0.2-3.5-0.7-3.7-2.5L24.2,22.2z M27,28c0.1,0.8,0.6,1.1,1.3,1c0.7-0.1,1.1-0.4,1.1-1.2l-0.6-6.1c-0.1-0.8-0.6-1.1-1.3-1
				c-0.7,0.1-1.1,0.4-1.1,1.2L27,28z"/>
			<path class="st1" d="M32.3,20.4c-0.1-1.2,0.6-1.9,2-2c1.4-0.1,2.2,0.4,2.3,1.6l0.4,3.7c0.1,1.2-0.6,1.9-2,2
				c-1.4,0.1-2.2-0.4-2.3-1.6L32.3,20.4z M34.1,24.1c0,0.5,0.3,0.7,0.8,0.6c0.5,0,0.7-0.3,0.7-0.8L35.2,20c0-0.5-0.4-0.7-0.8-0.6
				c-0.5,0-0.7,0.3-0.7,0.8L34.1,24.1z M40,17.9l1.3-0.1l-4.6,11.9l-1.3,0.1L40,17.9z M39.8,23.9c-0.1-1.2,0.6-1.9,2-2
				c1.4-0.1,2.2,0.4,2.3,1.6l0.4,3.7c0.1,1.2-0.6,1.9-2,2c-1.4,0.1-2.2-0.4-2.3-1.6L39.8,23.9z M41.6,27.6c0,0.5,0.3,0.7,0.8,0.6
				c0.5,0,0.7-0.3,0.7-0.8l-0.4-3.9c0-0.5-0.4-0.7-0.8-0.6c-0.5,0-0.7,0.3-0.7,0.8L41.6,27.6z"/>
		</g>
		<g>
			<path class="st1" d="M38.3,36.5c-0.2-0.1-0.4-0.3-0.6-0.4c-0.8-0.5-0.9-1.2-0.5-1.9c0.5-0.7,1.2-0.8,1.9-0.3
				c0.8,0.6,1.7,1.1,2.5,1.6c0.8,0.5,1,1.2,0.5,1.9c-0.5,0.7-1.2,0.8-2,0.3c-0.2-0.1-0.3-0.2-0.5-0.3c0.2-0.2,0.3-0.5,0.5-0.7
				c0.2,0.1,0.3,0.2,0.5,0.3c0.3,0.2,0.6,0.2,0.7-0.1s0.1-0.5-0.2-0.7c-0.9-0.6-1.7-1.1-2.6-1.7c-0.3-0.2-0.6-0.2-0.7,0.1
				c-0.2,0.2-0.1,0.5,0.2,0.7c0.2,0.2,0.5,0.3,0.7,0.5C38.6,36,38.5,36.3,38.3,36.5z"/>
			<path class="st1" d="M37.4,39.1c-0.3,0.3-0.6,0.6-0.9,0.8c-0.2-0.2-0.4-0.4-0.6-0.6c0.3-0.3,0.6-0.5,0.9-0.8
				c-0.4-0.4-0.8-0.8-1.1-1.3c-0.4,0.3-0.8,0.7-1.2,1c-0.2-0.2-0.4-0.4-0.6-0.6c0.6-0.5,1.2-1.1,1.8-1.6c1.3,1.4,2.6,2.8,3.9,4.3
				c-0.6,0.6-1.2,1.1-1.8,1.6c-0.2-0.2-0.4-0.4-0.6-0.6c0.4-0.3,0.8-0.7,1.2-1C38.1,39.9,37.8,39.5,37.4,39.1z"/>
			<path class="st1" d="M31.4,39.2c0.1,0.1,0.2,0.2,0.4,0.6c0.1,0.3,0.3,0.5,0.4,0.8c0.2,0.5,0.5,0.6,0.9,0.4c0.1,0,0.2-0.1,0.3-0.1
				c-0.4-0.7-0.7-1.4-1.1-2.1c0.3-0.1,0.5-0.3,0.8-0.4c0.9,1.7,1.8,3.4,2.7,5.1c-0.4,0.2-0.8,0.4-1.2,0.6c-0.8,0.4-1.4,0.2-1.8-0.6
				c-0.1-0.1-0.1-0.3-0.2-0.4c-0.3-0.5-0.3-0.9,0-1.3c0,0,0,0,0,0c-0.5,0-0.8-0.3-1.1-0.8c-0.1-0.3-0.3-0.5-0.4-0.8
				c-0.1-0.2-0.2-0.4-0.4-0.6C30.9,39.4,31.2,39.3,31.4,39.2z M34.6,43.1c-0.3-0.5-0.6-1-0.8-1.6c-0.1,0.1-0.2,0.1-0.3,0.2
				c-0.3,0.2-0.4,0.4-0.2,0.8c0.1,0.2,0.2,0.3,0.3,0.5c0.2,0.4,0.4,0.5,0.7,0.3C34.4,43.2,34.5,43.2,34.6,43.1z"/>
			<path class="st1" d="M31.3,45.4c-0.9,0.2-1.8,0.4-2.8,0.6c-0.1-0.3-0.1-0.5-0.2-0.8c0.3-0.1,0.6-0.1,0.9-0.2
				c-0.4-1.6-0.8-3.2-1.1-4.8c0.3-0.1,0.6-0.1,0.9-0.2c0.4,1.6,0.8,3.2,1.1,4.8c0.3-0.1,0.6-0.1,0.9-0.2
				C31.1,44.9,31.2,45.1,31.3,45.4z"/>
			<path class="st1" d="M26.4,46.2c-0.3,0-0.6,0-0.9,0c-0.1-1.9-0.1-3.8-0.2-5.7c0.3,0,0.6,0,0.9,0C26.3,42.4,26.3,44.3,26.4,46.2z"
				/>
			<path class="st1" d="M22.7,43.5c-0.4-0.1-0.8-0.1-1.2-0.2c0-0.3,0.1-0.5,0.1-0.8c0.4,0.1,0.8,0.1,1.2,0.2
				c0.1-0.8,0.3-1.6,0.4-2.3c0.3,0,0.6,0.1,0.9,0.1c-0.3,1.9-0.6,3.8-1,5.7c-0.8-0.1-1.6-0.3-2.4-0.4c0-0.3,0.1-0.5,0.1-0.8
				c0.5,0.1,1,0.2,1.5,0.2C22.5,44.6,22.6,44,22.7,43.5z"/>
			<path class="st1" d="M18.7,45.1c-0.3-0.1-0.6-0.2-0.9-0.3c0.7-1.8,1.4-3.6,2.1-5.4c0.3,0.1,0.6,0.2,0.9,0.3
				C20.1,41.5,19.4,43.3,18.7,45.1z"/>
			<path class="st1" d="M16.2,41.3c-0.4-0.2-0.7-0.4-1.1-0.7c0.1-0.2,0.3-0.5,0.4-0.7c0.4,0.2,0.7,0.4,1.1,0.7
				c0.3-0.5,0.6-1,0.9-1.4c-0.4-0.3-0.9-0.5-1.3-0.8c0.1-0.2,0.3-0.5,0.4-0.7c0.7,0.4,1.4,0.9,2.1,1.3c-1,1.6-2,3.3-3.1,4.9
				c-0.7-0.4-1.4-0.9-2.1-1.3c0.1-0.2,0.3-0.5,0.4-0.7c0.4,0.3,0.9,0.6,1.3,0.8C15.7,42.2,16,41.8,16.2,41.3z"/>
			<path class="st1" d="M11.7,41c-0.3-0.3-0.7-0.7-1-1c-0.6-0.7-0.6-1.3,0.1-1.9c0.7-0.7,1.4-1.3,2.1-2c0.7-0.6,1.3-0.7,2,0
				c0.3,0.3,0.7,0.7,1,1C14.5,38.3,13.1,39.7,11.7,41z M11.6,39.7c1-0.9,2-1.9,3-2.8c-0.1-0.1-0.2-0.2-0.4-0.4
				c-0.2-0.2-0.4-0.2-0.7,0.1c-0.7,0.7-1.5,1.4-2.2,2c-0.3,0.3-0.3,0.5-0.1,0.7C11.4,39.5,11.5,39.6,11.6,39.7z"/>
		</g>
	</g>
</g>
</svg>
