<?xml version="1.0" encoding="utf-8"?>
<!-- Generator: Adobe Illustrator 23.0.4, SVG Export Plug-In . SVG Version: 6.00 Build 0)  -->
<svg version="1.1" id="Layer_1" xmlns="http://www.w3.org/2000/svg" xmlns:xlink="http://www.w3.org/1999/xlink" x="0px" y="0px"
	 viewBox="0 0 50 50" style="enable-background:new 0 0 50 50;" xml:space="preserve">
<style type="text/css">
	.st0{fill:#606061;}
	.st1{fill:#606162;}
</style>
<g>
	<g>
		<g>
			<path class="st0" d="M8.6,18.9L8.6,18.9c0.5,0.3,1.1,0,1.4-0.4c0.3-0.5,0.1-1.1-0.4-1.3l0,0c-0.5-0.2-1.1,0-1.4,0.4
				C7.9,18.1,8.1,18.7,8.6,18.9z"/>
		</g>
		<g>
			<path class="st0" d="M7.1,24.6L7.1,24.6c0.6,0.1,1.1-0.3,1.2-0.9c0.1-0.5-0.3-1.1-0.9-1.1l0,0c-0.6-0.1-1.1,0.3-1.1,0.9
				C6.2,24,6.6,24.5,7.1,24.6z"/>
		</g>
		<g>
			<path class="st0" d="M7.6,30.4c0.5-0.1,0.9-0.6,0.8-1.2c-0.1-0.5-0.6-0.9-1.2-0.8l0,0c-0.5,0.1-0.9,0.6-0.8,1.2
				C6.5,30.2,7.1,30.5,7.6,30.4L7.6,30.4z"/>
		</g>
	</g>
	<g>
		<g>
			<path class="st0" d="M43.3,27.3L43.3,27.3c-0.6-0.1-1.1,0.3-1.2,0.8c-0.1,0.5,0.3,1.1,0.8,1.2l0,0c0.5,0.1,1.1-0.3,1.2-0.8
				C44.2,28,43.9,27.4,43.3,27.3z"/>
		</g>
		<g>
			<path class="st0" d="M42.3,22.6c0.1,0.5,0.6,0.9,1.1,0.9l0,0c0.6-0.1,0.9-0.6,0.9-1.1c-0.1-0.5-0.6-0.9-1.1-0.9l0,0
				C42.6,21.6,42.2,22.1,42.3,22.6z"/>
		</g>
		<g>
			<path class="st0" d="M42,17.8L42,17.8c0.5-0.3,0.7-0.8,0.5-1.3c-0.2-0.5-0.9-0.7-1.4-0.5l0,0c-0.5,0.2-0.7,0.8-0.5,1.3
				C40.9,17.8,41.5,18,42,17.8z"/>
		</g>
	</g>
	<g>
		<path class="st0" d="M25.1,0.7C11.5,0.7,0.5,11.6,0.5,24.9c0,13.3,11,24.2,24.5,24.2s24.5-10.8,24.5-24.2
			C49.6,11.6,38.6,0.7,25.1,0.7z M25.1,48.1c-13,0-23.5-10.4-23.5-23.2c0-12.8,10.5-23.2,23.5-23.2s23.5,10.4,23.5,23.2
			C48.6,37.7,38,48.1,25.1,48.1z"/>
	</g>
	<g>
		<path class="st1" d="M16.5,41.9c0.2,0.2,0.4,0.3,0.7,0.4c0.4,0.1,0.6,0,0.7-0.3c0.1-0.2,0-0.4-0.4-0.7c-0.5-0.3-0.7-0.7-0.6-1.2
			c0.2-0.5,0.7-0.8,1.4-0.6c0.3,0.1,0.6,0.3,0.7,0.4l-0.3,0.4c-0.1-0.1-0.3-0.2-0.6-0.3c-0.4-0.1-0.6,0-0.6,0.2
			c-0.1,0.2,0.1,0.4,0.5,0.7c0.5,0.4,0.7,0.7,0.5,1.2c-0.1,0.5-0.7,0.8-1.5,0.6c-0.3-0.1-0.7-0.3-0.8-0.5L16.5,41.9z"/>
		<path class="st1" d="M21.2,42.3L20,42L19.8,43l1.4,0.3l-0.1,0.5l-2-0.4l0.6-3.2l1.9,0.4L21.6,41l-1.3-0.3l-0.2,0.8l1.2,0.2
			L21.2,42.3z"/>
		<path class="st1" d="M24.3,44c-0.1,0.1-0.5,0.1-0.9,0.1c-1-0.1-1.6-0.8-1.5-1.8c0.1-1.1,0.9-1.6,1.9-1.5c0.4,0,0.7,0.1,0.8,0.2
			l-0.2,0.5c-0.1-0.1-0.4-0.2-0.6-0.2c-0.7-0.1-1.2,0.3-1.3,1.1c-0.1,0.7,0.3,1.2,1,1.3c0.2,0,0.5,0,0.7-0.1L24.3,44z"/>
		<path class="st1" d="M25.8,40.9l0,1.9c0,0.6,0.3,0.9,0.7,0.9c0.4,0,0.7-0.3,0.7-1l0-1.9l0.6,0l0,1.9c0,1-0.5,1.5-1.3,1.5
			c-0.8,0-1.3-0.4-1.3-1.4l0-1.9L25.8,40.9z"/>
		<path class="st1" d="M28.5,40.8c0.2-0.1,0.5-0.1,0.9-0.2c0.5-0.1,0.8,0,1,0.1c0.2,0.1,0.3,0.3,0.4,0.6c0.1,0.4-0.2,0.7-0.5,0.9
			l0,0c0.2,0.1,0.4,0.3,0.5,0.6c0.2,0.4,0.3,0.8,0.4,0.9l-0.6,0.1c-0.1-0.1-0.2-0.3-0.3-0.7c-0.2-0.4-0.3-0.5-0.7-0.5l-0.3,0
			l0.2,1.3L28.9,44L28.5,40.8z M29.3,42.2l0.4,0c0.4-0.1,0.6-0.3,0.6-0.6c0-0.4-0.3-0.5-0.7-0.4c-0.2,0-0.3,0.1-0.4,0.1L29.3,42.2z"
			/>
		<path class="st1" d="M33.5,41.6L32.3,42l0.2,0.9l1.4-0.3L34,43L32,43.5l-0.8-3.2l1.9-0.5l0.1,0.5l-1.3,0.3l0.2,0.8l1.2-0.3
			L33.5,41.6z"/>
	</g>
	<g>
		<g>
			<defs>
				<path id="SVGID_1_" d="M36.3,24.9c-0.6,1.9-1.5,3.5-2.7,5c-1.4,1.7-3.2,3-5.4,4c0,0-0.1,0-0.1,0h0c0,0-0.1,0-0.1,0
					c-2.2-1-4-2.3-5.4-4c-1.2-1.4-2.1-3.1-2.7-5c-1-3.1-0.9-6.3-0.4-8c0-0.1,0.2-0.2,0.3-0.2c0,0,1.4,0.2,3,0
					c1.5-0.2,3.6-0.7,4.9-2.2c0.1-0.1,0.2-0.1,0.2-0.1c0,0,0,0,0,0c0.1,0,0.2,0,0.2,0.1c1.4,1.5,3.4,2,4.9,2.2c1.7,0.2,3,0,3,0
					c0.2,0,0.3,0.1,0.3,0.2C37.1,18.6,37.2,21.8,36.3,24.9L36.3,24.9z M36.1,17.4c-0.5,0-1.6,0.1-2.9-0.1c-2.2-0.3-3.9-1-5.1-2.2
					c-1.2,1.2-2.9,1.9-5.1,2.2c-1.3,0.2-2.4,0.1-2.9,0.1c-0.3,1.4-0.5,4.3,0.5,7.3c0.6,1.8,1.4,3.4,2.5,4.7c1.3,1.6,3,2.8,5,3.8
					c2-0.9,3.7-2.2,5-3.8c1.1-1.4,2-3,2.5-4.7C36.2,23,36.7,19.7,36.1,17.4L36.1,17.4z M28.3,32.3c0,0-0.1,0-0.1,0c0,0-0.1,0-0.1,0
					c-3.3-1.6-5.6-4.3-6.7-7.8c-0.9-2.8-0.7-5.2-0.6-6.1c0-0.2,0.2-0.3,0.3-0.3c0,0,0,0,0,0c0.1,0,0.1,0,0.2,0
					c1.6,0,4.5-0.2,6.7-1.9c0.1-0.1,0.3-0.1,0.4,0c2.2,1.6,5.1,1.9,6.7,1.9c0.1,0,0.1,0,0.2,0c0.2,0,0.3,0.1,0.3,0.3
					c0.1,0.9,0.3,3.3-0.6,6.1C33.8,28,31.6,30.7,28.3,32.3L28.3,32.3z M34.9,18.8c-0.8,0-2-0.1-3.2-0.4c-1.4-0.3-2.6-0.8-3.6-1.5
					c-1,0.7-2.2,1.2-3.6,1.5c-1.3,0.3-2.4,0.4-3.2,0.4c-0.1,0.9-0.2,3.1,0.6,5.6c1,3.3,3.1,5.8,6.2,7.4c3.1-1.6,5.2-4.1,6.2-7.4
					C35.1,21.8,35,19.7,34.9,18.8L34.9,18.8z M17.2,30.6h1.7c0.2,0,0.3,0.1,0.3,0.3c0,0.2-0.2,0.3-0.3,0.3h-1.7
					c-0.2,0-0.3-0.1-0.3-0.3C16.9,30.7,17,30.6,17.2,30.6L17.2,30.6z M17.9,31.9c0,0.2-0.2,0.3-0.3,0.3h-1.3c-0.2,0-0.3-0.1-0.3-0.3
					c0-0.2,0.2-0.3,0.3-0.3h1.3C17.7,31.5,17.9,31.7,17.9,31.9L17.9,31.9z M14.2,31.5h1c0.2,0,0.3,0.1,0.3,0.3
					c0,0.2-0.2,0.3-0.3,0.3h-1c-0.2,0-0.3-0.1-0.3-0.3C13.9,31.7,14,31.5,14.2,31.5L14.2,31.5z M14.2,30.6h2c0.2,0,0.3,0.1,0.3,0.3
					c0,0.2-0.2,0.3-0.3,0.3h-2c-0.2,0-0.3-0.1-0.3-0.3C13.9,30.7,14,30.6,14.2,30.6L14.2,30.6z M13.3,25.9c-0.4,0-0.7,0.3-0.7,0.7
					v0.6H20c0.1,0.2,0.2,0.4,0.3,0.7h-7.8v1h8.4c0.1,0.2,0.3,0.4,0.5,0.7h-8.8v3.6c0,0.4,0.3,0.7,0.7,0.7h10.3
					c0.4,0,0.7-0.3,0.7-0.7v-0.5c0.2,0.2,0.4,0.3,0.7,0.5v0c0,0.8-0.6,1.4-1.4,1.4H13.3c-0.8,0-1.4-0.6-1.4-1.4v-3.6v-2.3v-0.6
					c0-0.8,0.6-1.4,1.4-1.4h5.9c0.1,0.2,0.2,0.4,0.2,0.7H13.3L13.3,25.9z M31.4,23l-3,2.9c-0.2,0.2-0.5,0.3-0.7,0.3h0
					c-0.3,0-0.5-0.1-0.7-0.3v0l-1.5-1.5c-0.4-0.4-0.4-1,0-1.4c0.4-0.4,1.1-0.4,1.5,0l0.7,0.7l2.2-2.2c0.2-0.2,0.5-0.3,0.7-0.3h0
					c0.3,0,0.5,0.1,0.7,0.3C31.8,22,31.8,22.6,31.4,23L31.4,23z M30.9,22.1C30.9,22,30.8,22,30.7,22c-0.1,0-0.2,0-0.2,0.1l-2.7,2.7
					l-1.2-1.2c-0.1-0.1-0.4-0.1-0.5,0c-0.1,0.1-0.1,0.4,0,0.5l1.5,1.5c0.1,0.1,0.2,0.1,0.2,0.1c0.1,0,0.2,0,0.2-0.1l3-2.9
					C31.1,22.4,31.1,22.2,30.9,22.1L30.9,22.1z"/>
			</defs>
			<use xlink:href="#SVGID_1_"  style="overflow:visible;fill:#606061;"/>
			<clipPath id="SVGID_2_">
				<use xlink:href="#SVGID_1_"  style="overflow:visible;"/>
			</clipPath>
		</g>
	</g>
</g>
</svg>
