<?xml version="1.0" encoding="utf-8"?>
<!-- Generator: Adobe Illustrator 23.0.3, SVG Export Plug-In . SVG Version: 6.00 Build 0)  -->
<svg version="1.1" id="Layer_1" xmlns="http://www.w3.org/2000/svg" xmlns:xlink="http://www.w3.org/1999/xlink" x="0px" y="0px"
	 viewBox="0 0 16 16" style="enable-background:new 0 0 16 16;" xml:space="preserve">
<style type="text/css">
	.st0{fill:#1276E2;}
</style>
<g>
	<g>
		<path class="st0" d="M8,15.8c-4.4,0-8-3.5-8-7.8c0-4.3,3.6-7.8,8-7.8s8,3.5,8,7.8C16,12.3,12.4,15.8,8,15.8z M8,1.2
			c-3.9,0-7,3-7,6.8c0,3.7,3.1,6.8,7,6.8c3.9,0,7-3,7-6.8C15,4.3,11.9,1.2,8,1.2z"/>
	</g>
	<g>
		<path class="st0" d="M11.6,7.1H9V4.5H7v2.6H4.4v1.8H7v2.6H9V8.9h2.6V7.1z"/>
	</g>
</g>
</svg>
