<svg width="20" height="25" viewBox="0 0 20 25" fill="none" xmlns="http://www.w3.org/2000/svg">
<path d="M17.27 17.2211H16.3535C16.2755 17.2211 16.2125 17.1567 16.2125 17.0769C16.2125 16.9971 16.2755 16.9327 16.3535 16.9327H17.27C17.348 16.9327 17.4109 16.9971 17.4109 17.0769C17.4109 17.1567 17.3475 17.2211 17.27 17.2211Z" fill="#38B6FF"/>
<path d="M16.8117 17.6897C16.7337 17.6897 16.6707 17.6253 16.6707 17.5455V16.6084C16.6707 16.5286 16.7337 16.4642 16.8117 16.4642C16.8897 16.4642 16.9527 16.5286 16.9527 16.6084V17.5455C16.9527 17.6253 16.8893 17.6897 16.8117 17.6897Z" fill="#38B6FF"/>
<path d="M19.859 11.3588C19.8228 11.3588 19.7867 11.3449 19.7594 11.3165L19.1113 10.6538C19.0563 10.5976 19.0563 10.5062 19.1113 10.45C19.1663 10.3938 19.2556 10.3938 19.3106 10.45L19.9587 11.1127C20.0136 11.169 20.0136 11.2603 19.9587 11.3165C19.9314 11.3449 19.8952 11.3588 19.859 11.3588Z" fill="#38B6FF"/>
<path d="M19.2109 11.3588C19.1748 11.3588 19.1386 11.3449 19.1113 11.3165C19.0563 11.2603 19.0563 11.169 19.1113 11.1127L19.7594 10.45C19.8144 10.3938 19.9037 10.3938 19.9587 10.45C20.0136 10.5062 20.0136 10.5976 19.9587 10.6538L19.3106 11.3165C19.2833 11.3449 19.2471 11.3588 19.2109 11.3588Z" fill="#38B6FF"/>
<path d="M11.5612 0.951097C11.5251 0.951097 11.4889 0.93716 11.4616 0.908805L10.8135 0.246066C10.7585 0.189837 10.7585 0.0985237 10.8135 0.0422942C10.8685 -0.0139353 10.9578 -0.0139353 11.0128 0.0422942L11.6609 0.705033C11.7159 0.761263 11.7159 0.852575 11.6609 0.908805C11.6336 0.93716 11.5974 0.951097 11.5612 0.951097Z" fill="#38B6FF"/>
<path d="M10.9132 0.951097C10.877 0.951097 10.8408 0.93716 10.8135 0.908805C10.7585 0.852575 10.7585 0.761263 10.8135 0.705033L11.4616 0.0422942C11.5166 -0.0139353 11.6059 -0.0139353 11.6609 0.0422942C11.7159 0.0985237 11.7159 0.189837 11.6609 0.246066L11.0128 0.908805C10.9855 0.93716 10.9493 0.951097 10.9132 0.951097Z" fill="#38B6FF"/>
<path d="M3.17794 17.5527C3.14175 17.5527 3.10556 17.5388 3.0783 17.5104L2.43022 16.8477C2.37523 16.7914 2.37523 16.7001 2.43022 16.6439C2.4852 16.5877 2.5745 16.5877 2.62948 16.6439L3.27757 17.3066C3.33256 17.3629 3.33256 17.4542 3.27757 17.5104C3.24984 17.5383 3.21366 17.5527 3.17794 17.5527Z" fill="#38B6FF"/>
<path d="M2.52985 17.5527C2.49366 17.5527 2.45748 17.5388 2.43022 17.5104C2.37523 17.4542 2.37523 17.3629 2.43022 17.3066L3.0783 16.6439C3.13329 16.5877 3.22259 16.5877 3.27757 16.6439C3.33256 16.7001 3.33256 16.7914 3.27757 16.8477L2.62948 17.5104C2.60176 17.5383 2.56604 17.5527 2.52985 17.5527Z" fill="#38B6FF"/>
<path d="M0.475609 12.6675C0.213366 12.6675 0 12.4493 0 12.1811C0 11.913 0.213366 11.6948 0.475609 11.6948C0.737851 11.6948 0.951217 11.913 0.951217 12.1811C0.951217 12.4493 0.738321 12.6675 0.475609 12.6675ZM0.475609 11.9826C0.368926 11.9826 0.281981 12.0715 0.281981 12.1806C0.281981 12.2897 0.368926 12.3786 0.475609 12.3786C0.582292 12.3786 0.669236 12.2897 0.669236 12.1806C0.669236 12.0715 0.582761 11.9826 0.475609 11.9826Z" fill="#38B6FF"/>
<path d="M14.968 3.48816C14.7058 3.48816 14.4924 3.26997 14.4924 3.0018C14.4924 2.73363 14.7058 2.51544 14.968 2.51544C15.2303 2.51544 15.4436 2.73363 15.4436 3.0018C15.4436 3.26997 15.2303 3.48816 14.968 3.48816ZM14.968 2.80332C14.8614 2.80332 14.7744 2.89223 14.7744 3.00132C14.7744 3.11042 14.8614 3.19933 14.968 3.19933C15.0747 3.19933 15.1617 3.11042 15.1617 3.00132C15.1617 2.89223 15.0752 2.80332 14.968 2.80332Z" fill="#38B6FF"/>
<path d="M1.31736 7.18965L1.06216 7.32662L1.11104 7.03634L0.904724 6.83112L1.18953 6.78883L1.31736 6.52451L1.44472 6.78883L1.72952 6.83112L1.5232 7.03634L1.57208 7.32662L1.31736 7.18965Z" fill="#38B6FF"/>
<path d="M18.3537 7.35786L18.0985 7.49483L18.1474 7.20455L17.9411 6.99934L18.2259 6.95704L18.3537 6.69272L18.4811 6.95704L18.7659 6.99934L18.5596 7.20455L18.6085 7.49483L18.3537 7.35786Z" fill="#38B6FF"/>
<path d="M8.05434 17.9713C7.87904 17.9713 7.70233 17.9434 7.53079 17.8863C7.04343 17.7243 6.65853 17.3509 6.47524 16.8611L6.30135 16.3964C6.1425 15.9716 5.7529 15.6823 5.30878 15.6592L4.82283 15.6337C4.31103 15.6068 3.84482 15.3482 3.54357 14.9239C3.24232 14.5 3.14598 13.9665 3.27898 13.4605L3.4054 12.9799C3.52102 12.5406 3.37203 12.0725 3.02614 11.7866L2.64781 11.4737C2.24928 11.1445 2.02087 10.6548 2.02087 10.1304C2.02087 9.60611 2.24928 9.11686 2.64781 8.78717L3.02614 8.47431C3.37203 8.18835 3.52055 7.72026 3.4054 7.28099L3.27898 6.8004C3.14598 6.29434 3.24232 5.76088 3.54357 5.33699C3.84482 4.91311 4.31103 4.65455 4.82283 4.62716L5.30878 4.60168C5.7529 4.57814 6.1425 4.28882 6.30135 3.86445L6.47524 3.39972C6.65853 2.91048 7.04296 2.53657 7.53079 2.37461C8.01815 2.21265 8.54404 2.28378 8.9736 2.56973L9.38153 2.84127C9.75421 3.08926 10.2359 3.08926 10.6086 2.84127L11.0166 2.56973C11.4461 2.28378 11.972 2.21265 12.4594 2.37509C12.9467 2.53705 13.3311 2.91048 13.5144 3.4002L13.6883 3.86493C13.8472 4.2893 14.2368 4.5791 14.6809 4.60217L15.1668 4.62764C15.6786 4.65455 16.1449 4.91311 16.4461 5.33747C16.7474 5.76136 16.8437 6.29482 16.7107 6.80088L16.5843 7.28147C16.4687 7.72074 16.6176 8.18884 16.9635 8.47479L17.3419 8.78766C17.7404 9.11734 17.9688 9.60659 17.9688 10.1309C17.9688 10.6552 17.7404 11.1445 17.3419 11.4742L16.9635 11.787C16.6176 12.073 16.4691 12.5411 16.5843 12.9804L16.7107 13.4609C16.8437 13.967 16.7474 14.5005 16.4461 14.9244C16.1449 15.3482 15.6786 15.6068 15.1668 15.6342L14.6809 15.6597C14.2368 15.6832 13.8472 15.9725 13.6883 16.3969L13.5144 16.8616C13.3311 17.3509 12.9467 17.7248 12.4594 17.8867C11.972 18.0487 11.4461 17.9776 11.0166 17.6921L10.6086 17.4206C10.2359 17.1726 9.75421 17.1726 9.38153 17.4206L8.9736 17.6921C8.6949 17.8766 8.37627 17.9713 8.05434 17.9713ZM9.99484 16.6574C10.3154 16.6574 10.6359 16.7506 10.916 16.9366L11.3239 17.2081C11.6101 17.3985 11.9602 17.446 12.285 17.3379C12.6097 17.2298 12.8659 16.9813 12.9881 16.655L13.162 16.1902C13.4007 15.553 13.9858 15.118 14.6522 15.083L15.1382 15.0575C15.4789 15.0397 15.7896 14.8672 15.9902 14.5851C16.1909 14.3025 16.2553 13.9473 16.1665 13.6104L16.04 13.1298C15.8666 12.4709 16.0903 11.7673 16.6092 11.3382L16.988 11.0253C17.2535 10.8057 17.4058 10.4798 17.4058 10.1309C17.4058 9.782 17.2535 9.45568 16.988 9.23653L16.6097 8.92366C16.0903 8.49449 15.8671 7.79138 16.0405 7.13201L16.1669 6.65142C16.2558 6.31452 16.1914 5.95888 15.9907 5.67677C15.79 5.39418 15.4794 5.22213 15.1386 5.20435L14.6527 5.17888C13.9863 5.14379 13.4012 4.70934 13.1624 4.07159L12.9885 3.60686C12.8663 3.28101 12.6102 3.03207 12.2855 2.92441C11.9607 2.81628 11.6106 2.86386 11.3244 3.05417L10.9164 3.32571C10.3572 3.69817 9.6339 3.69817 9.07464 3.32571L8.66671 3.05417C8.38049 2.86386 8.03037 2.81628 7.70562 2.92441C7.38087 3.03207 7.12474 3.28101 7.00255 3.60686L6.82866 4.07159C6.58991 4.70886 6.00527 5.14379 5.33838 5.17888L4.85244 5.20435C4.51171 5.22213 4.20106 5.39466 4.00038 5.67677C3.79971 5.95936 3.73532 6.31452 3.82415 6.65142L3.95057 7.13201C4.12399 7.79138 3.90028 8.49449 3.38143 8.92366L3.00311 9.23653C2.73758 9.45616 2.58531 9.782 2.58531 10.1309C2.58531 10.4798 2.73758 10.8061 3.00311 11.0253L3.38143 11.3382C3.90075 11.7673 4.12399 12.4704 3.95057 13.1298L3.82415 13.6104C3.73532 13.9473 3.79971 14.3029 4.00038 14.5851C4.20106 14.8676 4.51171 15.0397 4.85244 15.0575L5.33838 15.083C6.0048 15.118 6.58991 15.5525 6.82866 16.1902L7.00255 16.655C7.12474 16.9808 7.38087 17.2298 7.70562 17.3379C8.03037 17.446 8.38049 17.3985 8.66671 17.2081L9.07464 16.9366C9.35333 16.7506 9.67385 16.6574 9.99484 16.6574Z" fill="#38B6FF"/>
<path d="M9.99477 14.9306C7.40665 14.9306 5.30072 12.7771 5.30072 10.1304C5.30072 7.4838 7.40665 5.33026 9.99477 5.33026C12.5829 5.33026 14.6888 7.4838 14.6888 10.1304C14.6888 12.7771 12.5829 14.9306 9.99477 14.9306ZM9.99477 5.90697C7.7173 5.90697 5.86468 7.80147 5.86468 10.1304C5.86468 12.4594 7.7173 14.3539 9.99477 14.3539C12.2722 14.3539 14.1249 12.4594 14.1249 10.1304C14.1249 7.80147 12.2718 5.90697 9.99477 5.90697Z" fill="#38B6FF"/>
<path d="M7.43962 24.1892L5.73739 21.6113L2.71173 21.9348L5.67865 15.4285L6.1895 15.6726L3.64368 21.2552L6.01514 21.0019L7.34939 23.0224L10.1476 16.8857L10.6589 17.1293L7.43962 24.1892Z" fill="#38B6FF"/>
<path d="M12.5947 25L9.51123 18.5351L10.0179 18.2823L12.6647 23.8317L13.9647 21.7877L16.3399 21.9987L13.4627 15.9663L13.9694 15.7135L17.2836 22.6614L14.2527 22.3923L12.5947 25Z" fill="#38B6FF"/>
<path d="M4.60949 2.33471H3.69305C3.61504 2.33471 3.55206 2.27031 3.55206 2.19053C3.55206 2.11076 3.61504 2.04636 3.69305 2.04636H4.60949C4.68751 2.04636 4.75048 2.11076 4.75048 2.19053C4.75048 2.27031 4.68751 2.33471 4.60949 2.33471Z" fill="#38B6FF"/>
<path d="M4.15124 2.8033C4.07323 2.8033 4.01025 2.7389 4.01025 2.65912V1.72197C4.01025 1.64219 4.07323 1.57779 4.15124 1.57779C4.22926 1.57779 4.29223 1.64219 4.29223 1.72197V2.65912C4.29223 2.7389 4.22926 2.8033 4.15124 2.8033Z" fill="#38B6FF"/>
<path d="M8.27298 9.7866L7.87421 10.1944L9.47297 11.8293L9.87175 11.4215L8.27298 9.7866Z" fill="#38B6FF"/>
<path d="M11.9982 8.43146L9.07452 11.4213L9.4733 11.8291L12.397 8.83925L11.9982 8.43146Z" fill="#38B6FF"/>
</svg>
