<svg width="17" height="19" viewBox="0 0 17 19" fill="none" xmlns="http://www.w3.org/2000/svg">
<path d="M0.465088 0.248474C0.465088 0.248474 5.81719 9.23712 0.465088 18.7495H3.29168C3.29168 18.7495 7.15522 10.5153 3.29168 0.248474H0.465088Z" fill="#EFF8FE"/>
<path d="M3.47819 18.998H0.0112345L0.213455 18.6392C2.94006 13.7921 2.79851 9.08605 2.19859 5.9921C1.54699 2.62881 0.229183 0.386619 0.216825 0.36376L0 0H3.49392L3.55796 0.169953C5.57117 5.51802 5.46332 10.3055 5.01844 13.3806C4.53648 16.7171 3.59054 18.7595 3.55009 18.845L3.47819 18.998ZM0.913362 18.5011H3.09847C3.32428 17.9664 4.06575 16.0671 4.46345 13.2991C4.89373 10.3125 4.99822 5.67903 3.08836 0.49694H0.913362C1.31668 1.26918 2.2278 3.21321 2.74795 5.88973C3.35124 8.98467 3.5074 13.6549 0.913362 18.5011Z" fill="#1A9DD9"/>
<path d="M7.58897 0.248505C7.58897 0.248505 12.4805 9.23715 7.12836 18.7496H9.55837C9.55837 18.7496 13.4219 10.5153 9.55837 0.248505H7.58897Z" fill="#EFF8FE"/>
<path d="M9.70887 18.9483H6.76544L6.92722 18.6611C9.66618 13.7931 9.64371 9.06718 9.14266 5.96032C8.60003 2.59305 7.39794 0.356822 7.38671 0.334957L7.23167 0.0497131H9.72123L9.77291 0.185875C11.7828 5.525 11.6749 10.3046 11.2311 13.3747C10.7503 16.7052 9.80661 18.7416 9.76729 18.8261L9.70887 18.9483ZM7.48894 18.5508H9.40554C9.61451 18.0618 10.3796 16.1376 10.7874 13.3091C11.2188 10.3095 11.3244 5.6542 9.39656 0.447265H7.93383C8.27648 1.16286 9.14827 3.17248 9.58867 5.90367C10.0886 9.00556 10.1189 13.6927 7.48894 18.5508Z" fill="#1A9DD9"/>
<path d="M13.5971 0.349854C13.5971 0.349854 18.6436 9.3385 13.2915 18.8509H15.1194C15.1194 18.8509 18.9829 10.6166 15.1194 0.349854H13.5971Z" fill="#EFF8FE"/>
<path d="M15.2306 19H13.0185L13.1398 18.7843C15.8822 13.9093 15.8204 9.17749 15.2856 6.06565C14.7048 2.68944 13.4578 0.438299 13.4454 0.41544L13.3241 0.199768H15.2395L15.2777 0.302138C17.2842 5.63232 17.1764 10.4039 16.7337 13.4691C16.254 16.7926 15.2834 18.8877 15.2732 18.9076L15.2306 19ZM13.5611 18.7018H15.0036C15.1924 18.2665 15.9844 16.3185 16.4023 13.4204C16.836 10.4089 16.9416 5.72972 14.9969 0.498926H13.86C14.1846 1.14395 15.1317 3.19234 15.617 6.01098C16.154 9.12083 16.2237 13.8288 13.5611 18.7018Z" fill="#1A9DD9"/>
</svg>
