<svg width="20" height="14" viewBox="0 0 20 14" fill="none" xmlns="http://www.w3.org/2000/svg">
<path d="M7.93234 7.11395C7.77999 6.96189 7.53234 6.96189 7.37999 7.11395C7.22726 7.26562 7.22726 7.51217 7.37999 7.66384C7.53234 7.81589 7.77999 7.81589 7.93234 7.66384C8.08507 7.51217 8.08507 7.26562 7.93234 7.11395Z" fill="#38B6FF"/>
<path d="M10 7.77777C9.35391 7.77777 8.82812 8.30122 8.82812 8.94444C8.82812 9.58766 9.35391 10.1111 10 10.1111C10.6461 10.1111 11.1719 9.58766 11.1719 8.94444C11.1719 8.30122 10.6461 7.77777 10 7.77777ZM10 9.33333C9.78477 9.33333 9.60938 9.15872 9.60938 8.94444C9.60938 8.73016 9.78477 8.55555 10 8.55555C10.2152 8.55555 10.3906 8.73016 10.3906 8.94444C10.3906 9.15872 10.2152 9.33333 10 9.33333Z" fill="#38B6FF"/>
<path d="M10 5.83334C9.56328 5.83334 9.14102 5.92123 8.74531 6.09429C8.54766 6.18062 8.4582 6.41007 8.54492 6.60684C8.63164 6.80362 8.86211 6.89268 9.05977 6.80634C9.35586 6.67684 9.67266 6.61112 10.0004 6.61112C11.2926 6.61112 12.3441 7.65801 12.3441 8.94445C12.3441 10.2309 11.2926 11.2778 10.0004 11.2778C8.7082 11.2778 7.65664 10.2309 7.65664 8.94445C7.65664 8.93123 7.65664 8.91801 7.65703 8.90479C7.66211 8.69012 7.49141 8.51201 7.27578 8.50695C7.05977 8.50151 6.88125 8.67184 6.87617 8.8869C6.875 8.90634 6.875 8.92501 6.875 8.94445C6.875 10.6598 8.27695 12.0556 10 12.0556C11.723 12.0556 13.125 10.6598 13.125 8.94445C13.125 7.22907 11.723 5.83334 10 5.83334Z" fill="#38B6FF"/>
<path d="M10 0C9.78437 0 9.60938 0.174222 9.60938 0.388889V2.72222C9.60938 2.93689 9.78437 3.11111 10 3.11111C10.2156 3.11111 10.3906 2.93689 10.3906 2.72222V0.388889C10.3906 0.174222 10.2156 0 10 0Z" fill="#38B6FF"/>
<path d="M5.63589 2.88323L3.97886 1.23356C3.82651 1.0819 3.57886 1.0819 3.42651 1.23356C3.27417 1.38523 3.27417 1.63178 3.42651 1.78345L5.08354 3.43312C5.23589 3.58478 5.48354 3.58517 5.63589 3.43312C5.78862 3.28145 5.78862 3.0349 5.63589 2.88323Z" fill="#38B6FF"/>
<path d="M16.5734 1.23356C16.421 1.0819 16.1734 1.0819 16.021 1.23356L14.364 2.88323C14.2117 3.0349 14.2117 3.28145 14.364 3.43312C14.5164 3.58478 14.764 3.58517 14.9164 3.43312L16.5734 1.78345C16.7261 1.63178 16.7261 1.38523 16.5734 1.23356Z" fill="#38B6FF"/>
<path d="M19.9019 9.01094C17.4206 6.21405 13.7363 3.88889 9.99994 3.88889C6.26322 3.88889 2.57884 6.21483 0.0975945 9.01094C-0.0453742 9.17194 -0.0297492 9.41772 0.13197 9.55966C0.293688 9.702 0.540563 9.68644 0.683141 9.52544C0.766344 9.43172 0.851501 9.338 0.937829 9.24505C2.8683 12.1493 6.36752 14 9.99994 14C13.6324 14 17.1316 12.1493 19.0617 9.24544C19.148 9.33839 19.2331 9.43172 19.3163 9.52583C19.4585 9.68644 19.7054 9.70239 19.8675 9.56005C20.0296 9.41772 20.0449 9.17194 19.9019 9.01094ZM9.99994 13.2222C6.56556 13.2222 3.26283 11.4458 1.49642 8.673C2.88822 7.31539 6.10384 4.66666 9.99994 4.66666C13.896 4.66666 17.1117 7.31539 18.5035 8.673C16.737 11.4458 13.4339 13.2222 9.99994 13.2222Z" fill="#38B6FF"/>
</svg>
