<svg id="Layer_1" xmlns="http://www.w3.org/2000/svg" viewBox="0 0 61 61"><style>.st1{fill:none;stroke:#000;stroke-width:2;stroke-linejoin:round;stroke-miterlimit:10}</style><path d="M10.5 44.4c-.9-1.7-1.5-3.5-2-5.4-.3-1.6-.5-3.3-.5-5 0-12.7 10.3-23 23-23s23 10.3 23 23c0 3.7-.8 7.3-2.3 10.4" fill="none" stroke="#000" stroke-width="2" stroke-linecap="round" stroke-linejoin="round" stroke-miterlimit="10"/><path class="st1" d="M31 11v5M14.8 17.8L18 21M8 34h5M54 34h-4M47.4 17.8L44.1 21"/><circle class="st1" cx="31" cy="34" r="4"/><path class="st1" d="M27 35.8L22 38M47 27l-12 5.3M37 49H25c-1.1 0-2-.9-2-2v-1c0-1.1.9-2 2-2h12c1.1 0 2 .9 2 2v1c0 1.1-.9 2-2 2z"/></svg>