<svg xmlns="http://www.w3.org/2000/svg" viewBox="0 0 61 61"><path d="M39.3 48.2H20.4c-.3 0-.5-.2-.5-.5v-7.4c0-.3.2-.5.5-.5s.5.2.5.5v7H39l6-6V12.8H20.9v15c0 .3-.2.5-.5.5s-.5-.2-.5-.5V12.3c0-.3.2-.5.5-.5h25.1c.3 0 .5.2.5.5v29.2c0 .1-.1.3-.1.3L39.7 48c-.2.2-.3.2-.4.2z"/><path d="M39.3 48.2h-.2c-.2-.1-.3-.3-.3-.5v-6.3c0-.1.1-.3.1-.3.1-.1.2-.1.4-.1h6.2c.2 0 .4.1.5.3.1.2 0 .4-.1.5L39.7 48c-.2.2-.3.2-.4.2zm.5-6.2v4.6l4.6-4.6h-4.6zM41.7 19.5H31.2c-.3 0-.5-.2-.5-.5s.2-.5.5-.5h10.5c.3 0 .5.2.5.5s-.2.5-.5.5zM41.7 23.9H31.2c-.3 0-.5-.2-.5-.5s.2-.5.5-.5h10.5c.3 0 .5.2.5.5s-.2.5-.5.5zM41.7 28.3H24.2c-.3 0-.5-.2-.5-.5s.2-.5.5-.5h17.5c.3 0 .5.2.5.5s-.2.5-.5.5zM41.7 32.7H24.2c-.3 0-.5-.2-.5-.5s.2-.5.5-.5h17.5c.3 0 .5.2.5.5s-.2.5-.5.5zM41.7 37.1H29.1c-.3 0-.5-.2-.5-.5s.2-.5.5-.5h12.6c.3 0 .5.2.5.5s-.2.5-.5.5zM35.5 41.5h-4.6c-.3 0-.5-.2-.5-.5s.2-.5.5-.5h4.6c.3 0 .5.2.5.5s-.2.5-.5.5z"/><g><path d="M26 21.7h-1.5c-.3 0-.5-.2-.5-.5v-2.9c0-.3.2-.5.5-.5H26c.6 0 1.1.3 1.5.7.3.3.5.8.5 1.2 0 1.1-.9 2-2 2zm-1-1h1c.5 0 1-.4 1-1 0-.2-.1-.4-.2-.6-.2-.2-.5-.3-.7-.3h-1v1.9z"/><path d="M24.6 24.3c-.3 0-.5-.2-.5-.5v-2.6c0-.3.2-.5.5-.5s.5.2.5.5v2.6c-.1.2-.3.5-.5.5zM28.9 25.6c-.2 0-.3-.1-.4-.2l-2.8-4c-.2-.2-.1-.5.1-.7.2-.2.5-.1.7.1l2.8 4c.2.2.1.5-.1.7-.1.1-.2.1-.3.1z"/><path d="M26.4 25.6c-.1 0-.2 0-.3-.1-.2-.2-.3-.5-.1-.7l2.5-3.5c.2-.2.5-.3.7-.1.2.2.3.5.1.7l-2.5 3.5c-.1.2-.2.2-.4.2z"/></g><g><path d="M27.6 41.5l-2.9-.6c-.1 0-.2-.1-.3-.1l-9.9-9.9c-.2-.2-.2-.5 0-.7l2.3-2.3c.2-.2.5-.2.7 0l9.9 9.9c.1.1.1.2.1.3l.5 2.8c0 .2 0 .3-.1.4 0 .1-.1.2-.3.2zM25.1 40l1.9.4-.4-1.9-9.4-9.5-1.6 1.6 9.5 9.4zM13.8 29.9c-.1 0-.3-.1-.3-.1l-1.3-1.3c-.2-.2-.2-.5 0-.7l2.3-2.3c.2-.2.5-.2.7 0l1.3 1.3c.2.2.2.5 0 .7l-2.3 2.3c-.1.1-.2.1-.4.1zm-.6-1.8l.6.6 1.6-1.6-.6-.6-1.6 1.6z"/><path d="M20.2 34c-.1 0-.3 0-.3-.1l-4.1-4.1c-.2-.2-.2-.5 0-.7.2-.2.5-.2.7 0l4.1 4.1c.2.2.2.5 0 .7-.2.1-.3.1-.4.1zM24.8 40.9c-.1 0-.3 0-.3-.1-.2-.2-.2-.5 0-.7l2.3-2.3c.2-.2.5-.2.7 0 .2.2.2.5 0 .7l-2.3 2.3c-.1.1-.2.1-.4.1z"/></g></svg>