<svg id="Layer_1" xmlns="http://www.w3.org/2000/svg" viewBox="0 0 61 61"><style>.st0{fill:none;stroke:#000;stroke-width:2;stroke-linecap:round;stroke-linejoin:round;stroke-miterlimit:10}</style><path class="st0" d="M20 18h-9c-1.7 0-3 1.3-3 3M45 24v-6h-9"/><path class="st0" d="M42 24L28 10 14 24"/><path class="st0" d="M35 24l-4.9-4.9c-1.4 1.4-2.8 1.4-4.2 0L21 24"/><path class="st0" d="M50 43v8H11c-1.7 0-3-1.3-3-3V21c0 1.7 1.3 3 3 3h39v7"/><path class="st0" d="M38 33c-3 0-5 2.2-5 5s2 5 5 5h11c1.7 0 3-1.3 3-3v-8c0-.6-.4-1-1-1h-1c0 1.1-1.1 2-2 2H38"/><path fill="none" stroke="#000" stroke-width="2" stroke-miterlimit="10" d="M37 38h2"/></svg>