<svg id="Layer_1" xmlns="http://www.w3.org/2000/svg" viewBox="0 0 61 61"><style>.st0{fill:none;stroke:#000;stroke-width:2;stroke-linejoin:round;stroke-miterlimit:10}</style><path class="st0" d="M30.1 45.1H15.4c-.3 0-.6-.2-.6-.6V14.7c0-.3.2-.6.6-.6h6.1M36.2 14.2h6.1c.3 0 .6.2.6.6V32"/><path class="st0" d="M22.6 11c-.6 0-1.2.5-1.2 1.2V16c0 .6.5 1.2 1.2 1.2H35c.6 0 1.2-.5 1.2-1.2v-3.8c0-.6-.5-1.2-1.2-1.2H22.6zM36.6 41.9l3.6 3.7 4.8-5.9"/><ellipse transform="rotate(-45.001 40.802 42.656)" class="st0" cx="40.8" cy="42.7" rx="8.3" ry="8.3"/><path class="st0" d="M21.4 23.6h14.9M21.4 31h14.9M21.4 38.4h8.3"/></svg>