<svg id="Layer_1" xmlns="http://www.w3.org/2000/svg" viewBox="0 0 61 61"><style>.st0{fill:#141414}</style><path class="st0" d="M37.6 11.4c-2.5 0-5 .8-7 2.2-2.1-1.4-4.5-2.2-7-2.2-6.8 0-12.4 5.6-12.4 12.4 0 6.6 11.3 18.4 11.8 18.9l7.6 7.9 7.7-7.9c.4-.5 11.7-12.3 11.7-18.9 0-6.9-5.6-12.4-12.4-12.4zM37 41.5l-6.4 6.7-6.4-6.7c-.2-.1-11.3-11.8-11.3-17.7 0-5.9 4.8-10.7 10.7-10.7 2.4 0 4.6.8 6.5 2.2l.5.4.5-.4c1.9-1.5 4.1-2.2 6.5-2.2 5.9 0 10.7 4.8 10.7 10.7 0 5.9-11.2 17.6-11.3 17.7z"/><path class="st0" d="M40.6 30.8l-7.9 9.5c-.3.4-.3.9.1 1.2.2.1.4.2.5.2.2 0 .5-.1.7-.3l7.9-9.5c.3-.4.3-.9-.1-1.2-.3-.4-.9-.3-1.2.1z"/></svg>