<?xml version="1.0" encoding="utf-8"?>
<!-- Generator: Adobe Illustrator 23.0.3, SVG Export Plug-In . SVG Version: 6.00 Build 0)  -->
<svg version="1.1" id="Layer_1" xmlns="http://www.w3.org/2000/svg" xmlns:xlink="http://www.w3.org/1999/xlink" x="0px" y="0px"
	 viewBox="0 0 18 18" style="enable-background:new 0 0 18 18;" xml:space="preserve">
<style type="text/css">
	.st0{fill:#FFFFFF;}
</style>
<path class="st0" d="M0.9,9.9h0.9v6.3c0,1,0.8,1.8,1.8,1.8h10.8c1,0,1.8-0.8,1.8-1.8V9.9h0.9c0.2,0,0.4-0.1,0.5-0.2
	c0.1-0.1,0.3-0.2,0.3-0.4C18,9.2,18,9,18,8.8c0-0.2-0.1-0.3-0.2-0.5L9.6,0.3C9.6,0.2,9.5,0.1,9.3,0.1C9.2,0,9.1,0,9,0S8.8,0,8.7,0.1
	c-0.1,0-0.2,0.1-0.3,0.2L0.3,8.4C0.1,8.5,0.1,8.7,0,8.8C0,9,0,9.2,0.1,9.3c0.1,0.2,0.2,0.3,0.3,0.4C0.5,9.8,0.7,9.9,0.9,9.9z
	 M7.2,16.2v-4.5h3.6v4.5H7.2z M9,2.2l5.4,5.4v4.1l0,4.5h-1.8v-4.5c0-1-0.8-1.8-1.8-1.8H7.2c-1,0-1.8,0.8-1.8,1.8v4.5H3.6V7.6L9,2.2z
	"/>
</svg>
