<svg width="20" height="20" viewBox="0 0 20 20" fill="none" xmlns="http://www.w3.org/2000/svg">
<path d="M9.98518 7.88148C10.4 7.88148 10.7259 8.20741 10.7259 8.62222C10.7259 8.97778 11.0222 9.27407 11.4074 9.27407C11.763 9.27407 12.0593 8.97778 12.0593 8.62222C12.0593 7.7037 11.4667 6.96296 10.6667 6.66667V6.28148C10.6667 5.92592 10.3704 5.6 10.0148 5.6C9.65926 5.6 9.33333 5.8963 9.33333 6.28148V6.66667C8.53333 6.93333 7.94074 7.7037 7.94074 8.59259C7.94074 9.71852 8.85926 10.6667 10.0148 10.6667C10.4296 10.6667 10.7556 10.9926 10.7556 11.4074C10.7556 11.8222 10.4296 12.1481 10.0148 12.1481C9.6 12.1481 9.27407 11.7926 9.27407 11.4074C9.27407 11.0519 8.97778 10.7259 8.59259 10.7259C8.23704 10.7259 7.94074 11.0222 7.94074 11.4074C7.94074 12.3259 8.53333 13.0667 9.33333 13.363V13.7481C9.33333 14.1037 9.62963 14.4296 10.0148 14.4296C10.3704 14.4296 10.6667 14.1333 10.6667 13.7481V13.3333C11.4667 13.0667 12.0593 12.2963 12.0593 11.3778C12.0593 10.2519 11.1407 9.3037 9.98518 9.3037C9.57037 9.3037 9.24444 8.97778 9.24444 8.56296C9.27407 8.20741 9.6 7.88148 9.98518 7.88148ZM15.5852 13.6889C15.9111 13.8667 16.3259 13.7481 16.4741 13.4222C17.037 12.3852 17.3333 11.2 17.3333 9.98518C17.3333 5.95555 14.0444 2.66667 10.0148 2.66667C5.95556 2.66667 2.66667 5.95555 2.66667 9.98518C2.66667 14.0148 5.95555 17.3037 9.98518 17.3037C11.1704 17.3037 12.3259 17.0074 13.363 16.4741C13.6889 16.2963 13.8074 15.9111 13.6593 15.5852C13.4815 15.2593 13.0963 15.1407 12.7704 15.2889C11.9111 15.763 10.963 16 9.98518 16C6.66667 16 4 13.3037 4 10.0148C4 6.6963 6.6963 4.02963 9.98518 4.02963C13.2741 4.02963 16 6.6963 16 9.98518C16 10.963 15.763 11.9407 15.3185 12.8C15.1407 13.1259 15.2593 13.5407 15.5852 13.6889ZM9.98518 0C8.05926 0 6.19259 0.562963 4.56296 1.6C4.26667 1.80741 4.17778 2.22222 4.35556 2.51852C4.56296 2.81481 4.97778 2.9037 5.27407 2.72593C6.66667 1.80741 8.2963 1.33333 9.98518 1.33333C14.7556 1.33333 18.637 5.21481 18.637 9.98518C18.637 14.7556 14.7556 18.637 9.98518 18.637C5.21481 18.637 1.33333 14.7852 1.33333 9.98518C1.33333 8.32592 1.80741 6.72592 2.6963 5.33333C2.9037 5.03704 2.81481 4.62222 2.48889 4.41481C2.19259 4.20741 1.77778 4.2963 1.57037 4.62222C0.533333 6.22222 0 8.08889 0 9.98518C0 15.4963 4.47407 19.9704 9.98518 19.9704C15.4963 19.9704 19.9704 15.4963 19.9704 9.98518C20 4.47407 15.5259 0 9.98518 0Z" fill="#A1A4B1"/>
</svg>
