<?xml version="1.0" encoding="utf-8"?>
<!-- Generator: Adobe Illustrator 23.0.1, SVG Export Plug-In . SVG Version: 6.00 Build 0)  -->
<svg version="1.1" id="Layer_1" xmlns="http://www.w3.org/2000/svg" xmlns:xlink="http://www.w3.org/1999/xlink" x="0px" y="0px"
	 viewBox="0 0 29 45" style="enable-background:new 0 0 29 45;" xml:space="preserve">
<style type="text/css">
	.st0{fill:#666766;}
</style>
<path class="st0" d="M13.49,44.13c0,0-8.85-2.05-10.73-8.52c-1.96-6.71-0.11-12.8,6.62-19.54c6.73-6.73,6.36-11.97,4.11-15.34
	c0,0,6.16,5.27,7.11,10.47c0.75,4.11,0.37,7.48-1.87,11.22c-1.63,2.72-1.97,5.64,0,6.73c2.7,1.5,4.49-0.75,4.86-2.99
	c0.45-2.69,0.37-5.24,0-7.11c0,0,12.29,17.08-4.14,24.89c0,0,2.69-4.58-2.97-8.06c-4.99-3.07-5.86-7.57-5.11-9.44
	C11.37,26.46,4.91,35.62,13.49,44.13z"/>
</svg>
